<svg width="72" height="72" viewBox="0 0 72 72" fill="none" xmlns="http://www.w3.org/2000/svg">
<path d="M39.8965 9.44397L65.7985 54.306C66.1935 54.99 66.4014 55.766 66.4014 56.5559C66.4014 57.3458 66.1935 58.1218 65.7986 58.8059C65.4036 59.49 64.8356 60.0581 64.1515 60.453C63.4674 60.848 62.6914 61.0559 61.9015 61.056H10.0975C9.30764 61.0559 8.53165 60.848 7.84758 60.453C7.16351 60.0581 6.59546 59.49 6.20051 58.8059C5.80557 58.1218 5.59765 57.3458 5.59766 56.5559C5.59766 55.766 5.80559 54.99 6.20054 54.306L32.1025 9.44397C33.8335 6.44397 38.1625 6.44397 39.8965 9.44397ZM35.9995 45C35.2039 45 34.4408 45.316 33.8782 45.8787C33.3156 46.4413 32.9995 47.2043 32.9995 48C32.9995 48.7956 33.3156 49.5587 33.8782 50.1213C34.4408 50.6839 35.2039 51 35.9995 51C36.7952 51 37.5582 50.6839 38.1209 50.1213C38.6835 49.5587 38.9995 48.7956 38.9995 48C38.9995 47.2043 38.6835 46.4413 38.1209 45.8787C37.5582 45.316 36.7952 45 35.9995 45ZM35.9995 24C35.2647 24.0001 34.5555 24.2698 34.0064 24.7581C33.4573 25.2464 33.1065 25.9192 33.0205 26.649L32.9995 27V39C33.0004 39.7646 33.2932 40.5001 33.8181 41.0561C34.343 41.6121 35.0604 41.9467 35.8237 41.9915C36.587 42.0363 37.3387 41.7879 37.925 41.2972C38.5114 40.8064 38.8882 40.1103 38.9785 39.351L38.9995 39V27C38.9995 26.2043 38.6835 25.4413 38.1209 24.8787C37.5582 24.316 36.7952 24 35.9995 24Z" fill="url(#paint0_linear_5882_15590)"/>
<path d="M39.8965 9.44397L65.7985 54.306C66.1935 54.99 66.4014 55.766 66.4014 56.5559C66.4014 57.3458 66.1935 58.1218 65.7986 58.8059C65.4036 59.49 64.8356 60.0581 64.1515 60.453C63.4674 60.848 62.6914 61.0559 61.9015 61.056H10.0975C9.30764 61.0559 8.53165 60.848 7.84758 60.453C7.16351 60.0581 6.59546 59.49 6.20051 58.8059C5.80557 58.1218 5.59765 57.3458 5.59766 56.5559C5.59766 55.766 5.80559 54.99 6.20054 54.306L32.1025 9.44397C33.8335 6.44397 38.1625 6.44397 39.8965 9.44397ZM35.9995 45C35.2039 45 34.4408 45.316 33.8782 45.8787C33.3156 46.4413 32.9995 47.2043 32.9995 48C32.9995 48.7956 33.3156 49.5587 33.8782 50.1213C34.4408 50.6839 35.2039 51 35.9995 51C36.7952 51 37.5582 50.6839 38.1209 50.1213C38.6835 49.5587 38.9995 48.7956 38.9995 48C38.9995 47.2043 38.6835 46.4413 38.1209 45.8787C37.5582 45.316 36.7952 45 35.9995 45ZM35.9995 24C35.2647 24.0001 34.5555 24.2698 34.0064 24.7581C33.4573 25.2464 33.1065 25.9192 33.0205 26.649L32.9995 27V39C33.0004 39.7646 33.2932 40.5001 33.8181 41.0561C34.343 41.6121 35.0604 41.9467 35.8237 41.9915C36.587 42.0363 37.3387 41.7879 37.925 41.2972C38.5114 40.8064 38.8882 40.1103 38.9785 39.351L38.9995 39V27C38.9995 26.2043 38.6835 25.4413 38.1209 24.8787C37.5582 24.316 36.7952 24 35.9995 24Z" fill="#018ABE"/>
<defs>
<linearGradient id="paint0_linear_5882_15590" x1="35.9995" y1="7.19397" x2="35.9995" y2="61.056" gradientUnits="userSpaceOnUse">
<stop stop-color="#018ABE"/>
<stop offset="1" stop-color="#293359"/>
</linearGradient>
</defs>
</svg>
