<svg width="82" height="80" viewBox="0 0 82 80" fill="none" xmlns="http://www.w3.org/2000/svg">
<g clip-path="url(#clip0_5591_9718)">
<path d="M38.309 35.5156L37.1041 32.4076L49.536 27.5882L50.7408 30.6962L56.9568 28.2865L55.7519 25.1786C55.1129 23.53 53.8451 22.2028 52.2274 21.489C50.6098 20.7752 48.7749 20.7332 47.1263 21.3723L34.6945 26.1916C33.0459 26.8307 31.7187 28.0985 31.0049 29.7161C30.2911 31.3338 30.2491 33.1687 30.8882 34.8173L32.093 37.9252L38.309 35.5156Z" fill="#293359"/>
<path opacity="0.25" d="M46.0445 64.6921C45.2202 65.0117 44.3028 64.9907 43.494 64.6338C42.6851 64.2769 42.0512 63.6133 41.7317 62.789L39.322 56.5731C39.0025 55.7488 39.0235 54.8313 39.3804 54.0225C39.7373 53.2137 40.4009 52.5798 41.2252 52.2602C42.0494 51.9407 42.9669 51.9617 43.7757 52.3186C44.5845 52.6755 45.2184 53.3391 45.538 54.1634L47.9476 60.3793C48.2672 61.2036 48.2462 62.1211 47.8893 62.9299C47.5324 63.7387 46.8688 64.3726 46.0445 64.6921ZM64.6923 57.4631C63.868 57.7826 62.9506 57.7616 62.1418 57.4047C61.333 57.0478 60.6991 56.3843 60.3795 55.56L57.9698 49.344C57.6503 48.5197 57.6713 47.6023 58.0282 46.7935C58.3851 45.9847 59.0487 45.3508 59.873 45.0312C60.6973 44.7117 61.6147 44.7327 62.4235 45.0896C63.2323 45.4465 63.8662 46.1101 64.1858 46.9344L66.5955 53.1503C66.915 53.9746 66.894 54.892 66.5371 55.7008C66.1802 56.5097 65.5166 57.1436 64.6923 57.4631Z" fill="#293359"/>
<path opacity="0.5" d="M69.3888 23.4672L19.6613 42.7446C18.0127 43.3837 16.6855 44.6515 15.9717 46.2691C15.2579 47.8867 15.2159 49.7217 15.855 51.3702L19.4695 60.6941C20.1086 62.3427 21.3764 63.6699 22.994 64.3837C24.6116 65.0975 26.4466 65.1395 28.0951 64.5004L40.527 59.6811L39.3222 56.5731C39.0026 55.7488 39.0236 54.8313 39.3805 54.0225C39.7374 53.2137 40.401 52.5798 41.2253 52.2603C42.0496 51.9407 42.967 51.9617 43.7758 52.3186C44.5847 52.6755 45.2186 53.3391 45.5381 54.1634L46.7429 57.2714L59.1748 52.452L57.97 49.3441C57.6504 48.5198 57.6714 47.6023 58.0283 46.7935C58.3852 45.9847 59.0488 45.3508 59.8731 45.0312C60.6974 44.7117 61.6149 44.7327 62.4237 45.0896C63.2325 45.4465 63.8664 46.1101 64.1859 46.9344L65.3908 50.0424L77.8226 45.223C79.4712 44.5839 80.7984 43.3161 81.5122 41.6985C82.226 40.0809 82.268 38.246 81.6289 36.5974L78.0144 27.2735C77.3753 25.6249 76.1075 24.2977 74.4899 23.5839C72.8723 22.8701 71.0373 22.8281 69.3888 23.4672Z" fill="#293359"/>
<path d="M77.8219 45.2229L65.39 50.0423L66.5948 53.1503C66.9144 53.9746 66.8934 54.892 66.5365 55.7008C66.1796 56.5096 65.516 57.1435 64.6917 57.4631C63.8674 57.7826 62.95 57.7616 62.1412 57.4047C61.3323 57.0478 60.6984 56.3842 60.3789 55.5599L59.1741 52.452L46.7422 57.2713L47.947 60.3793C48.2666 61.2036 48.2456 62.121 47.8887 62.9298C47.5318 63.7387 46.8682 64.3726 46.0439 64.6921C45.2196 65.0116 44.3021 64.9907 43.4933 64.6337C42.6845 64.2768 42.0506 63.6133 41.7311 62.789L40.5262 59.681L28.0944 64.5004C26.4458 65.1394 24.6109 65.0975 22.9933 64.3836C21.3756 63.6698 20.1078 62.3427 19.4688 60.6941L29.1075 85.5578C29.7465 87.2064 31.0143 88.5336 32.632 89.2474C34.2496 89.9612 36.0845 90.0032 37.7331 89.3641L87.4606 70.0867C89.1092 69.4476 90.4363 68.1798 91.1501 66.5622C91.864 64.9446 91.9059 63.1097 91.2668 61.4611L81.6281 36.5973C82.2672 38.2459 82.2252 40.0808 81.5114 41.6984C80.7976 43.3161 79.4705 44.5839 77.8219 45.2229Z" fill="#293359"/>
</g>
<defs>
<clipPath id="clip0_5591_9718">
<rect width="80" height="80" fill="white" transform="translate(0 28.9161) rotate(-21.1894)"/>
</clipPath>
</defs>
</svg>
