<svg width="33" height="32" viewBox="0 0 33 32" fill="none" xmlns="http://www.w3.org/2000/svg">
<path d="M3.5 10.2718V24.9078C3.5 26.0592 4.43262 27 5.58496 27H6.625V8.18449H5.58496C4.43262 8.18449 3.5 9.12037 3.5 10.2718ZM26.415 8.18449H25.375V27H26.415C27.5625 27 28.5 26.0641 28.5 24.9078V10.2718C28.5 9.12037 27.5674 8.18449 26.415 8.18449ZM8.70996 27H23.2949V8.18449H8.70996V27ZM13.915 6.09225H18.0801V7.13592H20.165V6.09225C20.165 4.94078 19.2324 4 18.0801 4H13.915C12.7676 4 11.8301 4.93588 11.8301 6.09225V7.13592H13.915V6.09225Z" fill="#293359"/>
</svg>
