<svg width="32" height="32" viewBox="0 0 32 32" fill="none" xmlns="http://www.w3.org/2000/svg">
<path d="M15.9998 17.867L19.8665 21.7337C20.111 21.9781 20.4221 22.1003 20.7998 22.1003C21.1776 22.1003 21.4887 21.9781 21.7332 21.7337C21.9776 21.4892 22.0998 21.1781 22.0998 20.8003C22.0998 20.4225 21.9776 20.1114 21.7332 19.867L17.8665 16.0003L21.7332 12.1337C21.9776 11.8892 22.0998 11.5781 22.0998 11.2003C22.0998 10.8225 21.9776 10.5114 21.7332 10.267C21.4887 10.0225 21.1776 9.90033 20.7998 9.90033C20.4221 9.90033 20.111 10.0225 19.8665 10.267L15.9998 14.1337L12.1332 10.267C11.8887 10.0225 11.5776 9.90033 11.1998 9.90033C10.8221 9.90033 10.511 10.0225 10.2665 10.267C10.0221 10.5114 9.89984 10.8225 9.89984 11.2003C9.89984 11.5781 10.0221 11.8892 10.2665 12.1337L14.1332 16.0003L10.2665 19.867C10.0221 20.1114 9.89984 20.4225 9.89984 20.8003C9.89984 21.1781 10.0221 21.4892 10.2665 21.7337C10.511 21.9781 10.8221 22.1003 11.1998 22.1003C11.5776 22.1003 11.8887 21.9781 12.1332 21.7337L15.9998 17.867ZM15.9998 29.3337C14.1554 29.3337 12.4221 28.9834 10.7998 28.283C9.17762 27.5825 7.76651 26.6328 6.56651 25.4337C5.36651 24.2345 4.41673 22.8234 3.71717 21.2003C3.01762 19.5772 2.66739 17.8439 2.66651 16.0003C2.66562 14.1568 3.01584 12.4234 3.71717 10.8003C4.41851 9.17722 5.36828 7.7661 6.56651 6.56699C7.76473 5.36788 9.17584 4.4181 10.7998 3.71766C12.4238 3.01721 14.1572 2.66699 15.9998 2.66699C17.8425 2.66699 19.5758 3.01721 21.1998 3.71766C22.8238 4.4181 24.235 5.36788 25.4332 6.56699C26.6314 7.7661 27.5816 9.17722 28.2838 10.8003C28.9861 12.4234 29.3358 14.1568 29.3332 16.0003C29.3305 17.8439 28.9803 19.5772 28.2825 21.2003C27.5847 22.8234 26.635 24.2345 25.4332 25.4337C24.2314 26.6328 22.8203 27.583 21.1998 28.2843C19.5794 28.9857 17.8461 29.3354 15.9998 29.3337ZM15.9998 26.667C18.9776 26.667 21.4998 25.6337 23.5665 23.567C25.6332 21.5003 26.6665 18.9781 26.6665 16.0003C26.6665 13.0225 25.6332 10.5003 23.5665 8.43366C21.4998 6.36699 18.9776 5.33366 15.9998 5.33366C13.0221 5.33366 10.4998 6.36699 8.43317 8.43366C6.36651 10.5003 5.33317 13.0225 5.33317 16.0003C5.33317 18.9781 6.36651 21.5003 8.43317 23.567C10.4998 25.6337 13.0221 26.667 15.9998 26.667Z" fill="#293359"/>
</svg>
