<svg width="33" height="33" viewBox="0 0 33 33" fill="none" xmlns="http://www.w3.org/2000/svg">
<path d="M5.83317 24.5H8.49984V29.9413L15.3012 24.5H21.8332C23.3038 24.5 24.4998 23.304 24.4998 21.8333V11.1667C24.4998 9.696 23.3038 8.5 21.8332 8.5H5.83317C4.3625 8.5 3.1665 9.696 3.1665 11.1667V21.8333C3.1665 23.304 4.3625 24.5 5.83317 24.5Z" fill="#293359"/>
<path d="M27.1667 3.16699H11.1667C9.696 3.16699 8.5 4.36299 8.5 5.83366H24.5C25.9707 5.83366 27.1667 7.02966 27.1667 8.50033V19.167C28.6373 19.167 29.8333 17.971 29.8333 16.5003V5.83366C29.8333 4.36299 28.6373 3.16699 27.1667 3.16699Z" fill="#293359"/>
</svg>
