<svg width="25" height="25" viewBox="0 0 25 25" fill="none" xmlns="http://www.w3.org/2000/svg">
<path d="M19.5 4.5H17.5V3.5C17.5 3.23478 17.3946 2.98043 17.2071 2.79289C17.0196 2.60536 16.7652 2.5 16.5 2.5C16.2348 2.5 15.9804 2.60536 15.7929 2.79289C15.6054 2.98043 15.5 3.23478 15.5 3.5V4.5H9.5V3.5C9.5 3.23478 9.39464 2.98043 9.20711 2.79289C9.01957 2.60536 8.76522 2.5 8.5 2.5C8.23478 2.5 7.98043 2.60536 7.79289 2.79289C7.60536 2.98043 7.5 3.23478 7.5 3.5V4.5H5.5C4.70435 4.5 3.94129 4.81607 3.37868 5.37868C2.81607 5.94129 2.5 6.70435 2.5 7.5V19.5C2.5 20.2956 2.81607 21.0587 3.37868 21.6213C3.94129 22.1839 4.70435 22.5 5.5 22.5H19.5C20.2956 22.5 21.0587 22.1839 21.6213 21.6213C22.1839 21.0587 22.5 20.2956 22.5 19.5V7.5C22.5 6.70435 22.1839 5.94129 21.6213 5.37868C21.0587 4.81607 20.2956 4.5 19.5 4.5ZM20.5 19.5C20.5 19.7652 20.3946 20.0196 20.2071 20.2071C20.0196 20.3946 19.7652 20.5 19.5 20.5H5.5C5.23478 20.5 4.98043 20.3946 4.79289 20.2071C4.60536 20.0196 4.5 19.7652 4.5 19.5V12.5H20.5V19.5ZM20.5 10.5H4.5V7.5C4.5 7.23478 4.60536 6.98043 4.79289 6.79289C4.98043 6.60536 5.23478 6.5 5.5 6.5H7.5V7.5C7.5 7.76522 7.60536 8.01957 7.79289 8.20711C7.98043 8.39464 8.23478 8.5 8.5 8.5C8.76522 8.5 9.01957 8.39464 9.20711 8.20711C9.39464 8.01957 9.5 7.76522 9.5 7.5V6.5H15.5V7.5C15.5 7.76522 15.6054 8.01957 15.7929 8.20711C15.9804 8.39464 16.2348 8.5 16.5 8.5C16.7652 8.5 17.0196 8.39464 17.2071 8.20711C17.3946 8.01957 17.5 7.76522 17.5 7.5V6.5H19.5C19.7652 6.5 20.0196 6.60536 20.2071 6.79289C20.3946 6.98043 20.5 7.23478 20.5 7.5V10.5Z" fill="#333333" fill-opacity="0.6"/>
</svg>
