<svg width="33" height="32" viewBox="0 0 33 32" fill="none" xmlns="http://www.w3.org/2000/svg">
<path fill-rule="evenodd" clip-rule="evenodd" d="M8.50033 5.33398H24.5003C25.9148 5.33398 27.2714 5.89589 28.2716 6.89608C29.2718 7.89628 29.8337 9.25283 29.8337 10.6673V24.0007C29.8337 25.4151 29.2718 26.7717 28.2716 27.7719C27.2714 28.7721 25.9148 29.334 24.5003 29.334H8.50033C7.08584 29.334 5.72928 28.7721 4.72909 27.7719C3.7289 26.7717 3.16699 25.4151 3.16699 24.0007V10.6673C3.16699 9.25283 3.7289 7.89628 4.72909 6.89608C5.72928 5.89589 7.08584 5.33398 8.50033 5.33398ZM8.50033 8.00065C7.79308 8.00065 7.1148 8.2816 6.61471 8.7817C6.11461 9.2818 5.83366 9.96007 5.83366 10.6673V24.0007C5.83366 24.7079 6.11461 25.3862 6.61471 25.8863C7.1148 26.3864 7.79308 26.6673 8.50033 26.6673H24.5003C25.2076 26.6673 25.8858 26.3864 26.3859 25.8863C26.886 25.3862 27.167 24.7079 27.167 24.0007V10.6673C27.167 9.96007 26.886 9.2818 26.3859 8.7817C25.8858 8.2816 25.2076 8.00065 24.5003 8.00065H8.50033Z" fill="#333333"/>
<path fill-rule="evenodd" clip-rule="evenodd" d="M4.5 13.3337C4.5 12.98 4.64048 12.6409 4.89052 12.3909C5.14057 12.1408 5.47971 12.0003 5.83333 12.0003H27.1667C27.5203 12.0003 27.8594 12.1408 28.1095 12.3909C28.3595 12.6409 28.5 12.98 28.5 13.3337C28.5 13.6873 28.3595 14.0264 28.1095 14.2765C27.8594 14.5265 27.5203 14.667 27.1667 14.667H5.83333C5.47971 14.667 5.14057 14.5265 4.89052 14.2765C4.64048 14.0264 4.5 13.6873 4.5 13.3337ZM11.1667 2.66699C11.5203 2.66699 11.8594 2.80747 12.1095 3.05752C12.3595 3.30756 12.5 3.6467 12.5 4.00033V9.33366C12.5 9.68728 12.3595 10.0264 12.1095 10.2765C11.8594 10.5265 11.5203 10.667 11.1667 10.667C10.813 10.667 10.4739 10.5265 10.2239 10.2765C9.97381 10.0264 9.83333 9.68728 9.83333 9.33366V4.00033C9.83333 3.6467 9.97381 3.30756 10.2239 3.05752C10.4739 2.80747 10.813 2.66699 11.1667 2.66699ZM21.8333 2.66699C22.187 2.66699 22.5261 2.80747 22.7761 3.05752C23.0262 3.30756 23.1667 3.6467 23.1667 4.00033V9.33366C23.1667 9.68728 23.0262 10.0264 22.7761 10.2765C22.5261 10.5265 22.187 10.667 21.8333 10.667C21.4797 10.667 21.1406 10.5265 20.8905 10.2765C20.6405 10.0264 20.5 9.68728 20.5 9.33366V4.00033C20.5 3.6467 20.6405 3.30756 20.8905 3.05752C21.1406 2.80747 21.4797 2.66699 21.8333 2.66699Z" fill="#333333"/>
<path d="M11.1667 17.3333C11.1667 17.687 11.0262 18.0261 10.7761 18.2761C10.5261 18.5262 10.187 18.6667 9.83333 18.6667C9.47971 18.6667 9.14057 18.5262 8.89052 18.2761C8.64048 18.0261 8.5 17.687 8.5 17.3333C8.5 16.9797 8.64048 16.6406 8.89052 16.3905C9.14057 16.1405 9.47971 16 9.83333 16C10.187 16 10.5261 16.1405 10.7761 16.3905C11.0262 16.6406 11.1667 16.9797 11.1667 17.3333ZM11.1667 22.6667C11.1667 23.0203 11.0262 23.3594 10.7761 23.6095C10.5261 23.8595 10.187 24 9.83333 24C9.47971 24 9.14057 23.8595 8.89052 23.6095C8.64048 23.3594 8.5 23.0203 8.5 22.6667C8.5 22.313 8.64048 21.9739 8.89052 21.7239C9.14057 21.4738 9.47971 21.3333 9.83333 21.3333C10.187 21.3333 10.5261 21.4738 10.7761 21.7239C11.0262 21.9739 11.1667 22.313 11.1667 22.6667ZM17.8333 17.3333C17.8333 17.687 17.6929 18.0261 17.4428 18.2761C17.1928 18.5262 16.8536 18.6667 16.5 18.6667C16.1464 18.6667 15.8072 18.5262 15.5572 18.2761C15.3071 18.0261 15.1667 17.687 15.1667 17.3333C15.1667 16.9797 15.3071 16.6406 15.5572 16.3905C15.8072 16.1405 16.1464 16 16.5 16C16.8536 16 17.1928 16.1405 17.4428 16.3905C17.6929 16.6406 17.8333 16.9797 17.8333 17.3333ZM17.8333 22.6667C17.8333 23.0203 17.6929 23.3594 17.4428 23.6095C17.1928 23.8595 16.8536 24 16.5 24C16.1464 24 15.8072 23.8595 15.5572 23.6095C15.3071 23.3594 15.1667 23.0203 15.1667 22.6667C15.1667 22.313 15.3071 21.9739 15.5572 21.7239C15.8072 21.4738 16.1464 21.3333 16.5 21.3333C16.8536 21.3333 17.1928 21.4738 17.4428 21.7239C17.6929 21.9739 17.8333 22.313 17.8333 22.6667ZM24.5 17.3333C24.5 17.687 24.3595 18.0261 24.1095 18.2761C23.8594 18.5262 23.5203 18.6667 23.1667 18.6667C22.813 18.6667 22.4739 18.5262 22.2239 18.2761C21.9738 18.0261 21.8333 17.687 21.8333 17.3333C21.8333 16.9797 21.9738 16.6406 22.2239 16.3905C22.4739 16.1405 22.813 16 23.1667 16C23.5203 16 23.8594 16.1405 24.1095 16.3905C24.3595 16.6406 24.5 16.9797 24.5 17.3333ZM24.5 22.6667C24.5 23.0203 24.3595 23.3594 24.1095 23.6095C23.8594 23.8595 23.5203 24 23.1667 24C22.813 24 22.4739 23.8595 22.2239 23.6095C21.9738 23.3594 21.8333 23.0203 21.8333 22.6667C21.8333 22.313 21.9738 21.9739 22.2239 21.7239C22.4739 21.4738 22.813 21.3333 23.1667 21.3333C23.5203 21.3333 23.8594 21.4738 24.1095 21.7239C24.3595 21.9739 24.5 22.313 24.5 22.6667Z" fill="#333333"/>
</svg>
