<svg width="33" height="32" viewBox="0 0 33 32" fill="none" xmlns="http://www.w3.org/2000/svg">
<path d="M26 29.3337H22C21.6222 29.3337 21.3058 29.2057 21.0507 28.9497C20.7956 28.6937 20.6676 28.3772 20.6667 28.0003C20.6658 27.6234 20.7938 27.307 21.0507 27.051C21.3076 26.795 21.624 26.667 22 26.667H26V13.3337H7.33334V17.3337C7.33334 17.7114 7.20534 18.0283 6.94934 18.2843C6.69334 18.5403 6.37689 18.6679 6 18.667C5.62312 18.6661 5.30667 18.5381 5.05067 18.283C4.79467 18.0279 4.66667 17.7114 4.66667 17.3337V8.00033C4.66667 7.267 4.928 6.63944 5.45067 6.11766C5.97334 5.59589 6.60089 5.33455 7.33334 5.33366H8.66667V4.00033C8.66667 3.62255 8.79467 3.30611 9.05067 3.051C9.30667 2.79589 9.62312 2.66789 10 2.667C10.3769 2.66611 10.6938 2.79411 10.9507 3.051C11.2076 3.30789 11.3351 3.62433 11.3333 4.00033V5.33366H22V4.00033C22 3.62255 22.128 3.30611 22.384 3.051C22.64 2.79589 22.9564 2.66789 23.3333 2.667C23.7102 2.66611 24.0271 2.79411 24.284 3.051C24.5409 3.30789 24.6684 3.62433 24.6667 4.00033V5.33366H26C26.7333 5.33366 27.3613 5.595 27.884 6.11766C28.4067 6.64033 28.6676 7.26789 28.6667 8.00033V26.667C28.6667 27.4003 28.4058 28.0283 27.884 28.551C27.3622 29.0737 26.7342 29.3346 26 29.3337ZM12.9 26.667H3.33334C2.95556 26.667 2.63912 26.539 2.384 26.283C2.12889 26.027 2.00089 25.7106 2 25.3337C1.99912 24.9568 2.12712 24.6403 2.384 24.3843C2.64089 24.1283 2.95734 24.0003 3.33334 24.0003H12.9L10.4 21.467C10.1556 21.2226 10.028 20.9172 10.0173 20.551C10.0067 20.1848 10.1342 19.8679 10.4 19.6003C10.6444 19.3559 10.9556 19.2337 11.3333 19.2337C11.7111 19.2337 12.0222 19.3559 12.2667 19.6003L17.0667 24.4003C17.3333 24.667 17.4667 24.9781 17.4667 25.3337C17.4667 25.6892 17.3333 26.0003 17.0667 26.267L12.2667 31.067C12.0222 31.3114 11.7169 31.4394 11.3507 31.451C10.9844 31.4626 10.6676 31.3346 10.4 31.067C10.1556 30.8226 10.0333 30.5114 10.0333 30.1337C10.0333 29.7559 10.1556 29.4448 10.4 29.2003L12.9 26.667ZM7.33334 10.667H26V8.00033H7.33334V10.667Z" fill="#293359"/>
</svg>
