<svg width="22" height="21" viewBox="0 0 22 21" fill="none" xmlns="http://www.w3.org/2000/svg">
<path d="M19.0276 8.43445C18.7183 8.11125 18.3984 7.7782 18.2778 7.48535C18.1663 7.21711 18.1597 6.7725 18.1531 6.34184C18.1408 5.54121 18.1277 4.63395 17.4969 4.00312C16.8661 3.3723 15.9588 3.35918 15.1582 3.34687C14.7275 3.34031 14.2829 3.33375 14.0146 3.22219C13.7226 3.1016 13.3887 2.78168 13.0655 2.47242C12.4995 1.92855 11.8564 1.3125 11 1.3125C10.1436 1.3125 9.50129 1.92855 8.93445 2.47242C8.61125 2.78168 8.2782 3.1016 7.98535 3.22219C7.71875 3.33375 7.2725 3.34031 6.84184 3.34687C6.04121 3.35918 5.13395 3.3723 4.50312 4.00312C3.8723 4.63395 3.86328 5.54121 3.84687 6.34184C3.84031 6.7725 3.83375 7.21711 3.72219 7.48535C3.6016 7.77738 3.28168 8.11125 2.97242 8.43445C2.42855 9.00047 1.8125 9.64359 1.8125 10.5C1.8125 11.3564 2.42855 11.9987 2.97242 12.5655C3.28168 12.8887 3.6016 13.2218 3.72219 13.5146C3.83375 13.7829 3.84031 14.2275 3.84687 14.6582C3.85918 15.4588 3.8723 16.3661 4.50312 16.9969C5.13395 17.6277 6.04121 17.6408 6.84184 17.6531C7.2725 17.6597 7.71711 17.6663 7.98535 17.7778C8.27738 17.8984 8.61125 18.2183 8.93445 18.5276C9.50047 19.0714 10.1436 19.6875 11 19.6875C11.8564 19.6875 12.4987 19.0714 13.0655 18.5276C13.3887 18.2183 13.7218 17.8984 14.0146 17.7778C14.2829 17.6663 14.7275 17.6597 15.1582 17.6531C15.9588 17.6408 16.8661 17.6277 17.4969 16.9969C18.1277 16.3661 18.1408 15.4588 18.1531 14.6582C18.1597 14.2275 18.1663 13.7829 18.2778 13.5146C18.3984 13.2226 18.7183 12.8887 19.0276 12.5655C19.5714 11.9995 20.1875 11.3564 20.1875 10.5C20.1875 9.64359 19.5714 9.00129 19.0276 8.43445ZM14.7455 8.99555L10.1518 13.5893C10.0908 13.6503 10.0185 13.6987 9.9388 13.7317C9.85914 13.7648 9.77374 13.7818 9.6875 13.7818C9.60126 13.7818 9.51586 13.7648 9.4362 13.7317C9.35653 13.6987 9.28415 13.6503 9.2232 13.5893L7.25445 11.6205C7.19348 11.5596 7.14511 11.4872 7.11212 11.4075C7.07912 11.3279 7.06214 11.2425 7.06214 11.1562C7.06214 11.07 7.07912 10.9846 7.11212 10.905C7.14511 10.8253 7.19348 10.7529 7.25445 10.692C7.37759 10.5688 7.5446 10.4996 7.71875 10.4996C7.80498 10.4996 7.89036 10.5166 7.97003 10.5496C8.04969 10.5826 8.12207 10.631 8.18305 10.692L9.6875 12.1972L13.817 8.06695C13.8779 8.00598 13.9503 7.95761 14.03 7.92462C14.1096 7.89162 14.195 7.87464 14.2812 7.87464C14.3675 7.87464 14.4529 7.89162 14.5325 7.92462C14.6122 7.95761 14.6846 8.00598 14.7455 8.06695C14.8065 8.12793 14.8549 8.20031 14.8879 8.27997C14.9209 8.35964 14.9379 8.44502 14.9379 8.53125C14.9379 8.61748 14.9209 8.70286 14.8879 8.78253C14.8549 8.86219 14.8065 8.93457 14.7455 8.99555Z" fill="#3332CA"/>
</svg>
