<svg width="24" height="24" viewBox="0 0 24 24" fill="none" xmlns="http://www.w3.org/2000/svg">
<path d="M5 22C4.45 22 3.97933 21.8043 3.588 21.413C3.19667 21.0217 3.00067 20.5507 3 20V6C3 5.45 3.196 4.97934 3.588 4.588C3.98 4.19667 4.45067 4.00067 5 4H6V3C6 2.71667 6.096 2.47934 6.288 2.288C6.48 2.09667 6.71733 2.00067 7 2C7.28267 1.99934 7.52033 2.09534 7.713 2.288C7.90567 2.48067 8.00133 2.718 8 3V4H16V3C16 2.71667 16.096 2.47934 16.288 2.288C16.48 2.09667 16.7173 2.00067 17 2C17.2827 1.99934 17.5203 2.09534 17.713 2.288C17.9057 2.48067 18.0013 2.718 18 3V4H19C19.55 4 20.021 4.196 20.413 4.588C20.805 4.98 21.0007 5.45067 21 6V12.375C21 12.6583 20.904 12.896 20.712 13.088C20.52 13.28 20.2827 13.3757 20 13.375C19.7173 13.3743 19.48 13.2783 19.288 13.087C19.096 12.8957 19 12.6583 19 12.375V10H5V20H11.225C11.5083 20 11.7417 20.096 11.925 20.288C12.1083 20.48 12.2 20.7173 12.2 21C12.2 21.2827 12.1043 21.5203 11.913 21.713C11.7217 21.9057 11.484 22.0013 11.2 22H5ZM5 8H19V6H5V8ZM16.525 19.675L20.075 16.125C20.275 15.925 20.5083 15.825 20.775 15.825C21.0417 15.825 21.275 15.925 21.475 16.125C21.675 16.325 21.775 16.5627 21.775 16.838C21.775 17.1133 21.675 17.3507 21.475 17.55L17.25 21.8C17.05 22 16.8127 22.1 16.538 22.1C16.2633 22.1 16.0257 22 15.825 21.8L13.7 19.675C13.5 19.475 13.4 19.2377 13.4 18.963C13.4 18.6883 13.5 18.4507 13.7 18.25C13.9 18.0493 14.1377 17.9493 14.413 17.95C14.6883 17.9507 14.9257 18.0507 15.125 18.25L16.525 19.675Z" fill="#31974C"/>
</svg>
