<svg width="27" height="24" viewBox="0 0 27 24" fill="none" xmlns="http://www.w3.org/2000/svg">
<path d="M13.7502 5C13.6208 4.9999 13.4936 5.03328 13.381 5.09689C13.2683 5.1605 13.174 5.25217 13.1072 5.363L9.89524 10.7L5.15824 7.621C5.03709 7.5424 4.89583 7.50044 4.75142 7.50016C4.60701 7.49989 4.4656 7.54131 4.34416 7.61946C4.22271 7.6976 4.12642 7.80914 4.06683 7.94068C4.00724 8.07223 3.98689 8.21818 4.00824 8.361L5.50824 18.361C5.53483 18.5387 5.62438 18.701 5.76056 18.8183C5.89674 18.9356 6.07051 19.0001 6.25024 19H21.2502C21.43 19.0001 21.6037 18.9356 21.7399 18.8183C21.8761 18.701 21.9656 18.5387 21.9922 18.361L23.4922 8.361C23.5136 8.21818 23.4932 8.07223 23.4336 7.94068C23.3741 7.80914 23.2778 7.6976 23.1563 7.61946C23.0349 7.54131 22.8935 7.49989 22.749 7.50016C22.6046 7.50044 22.4634 7.5424 22.3422 7.621L17.6052 10.7L14.3932 5.364C14.3266 5.25298 14.2324 5.16111 14.1197 5.09732C14.007 5.03354 13.8797 5.00001 13.7502 5Z" fill="#FFC917"/>
</svg>
