<svg width="14" height="13" viewBox="0 0 14 13" fill="none" xmlns="http://www.w3.org/2000/svg">
<path d="M6.93832 10.5996C6.98885 10.6717 7.05646 10.7307 7.13532 10.7715C7.21419 10.8123 7.30194 10.8336 7.39104 10.8336C7.48013 10.8336 7.56789 10.8123 7.64675 10.7715C7.72562 10.7307 7.79322 10.6717 7.84375 10.5996L12.8005 3.55788C12.8578 3.47666 12.8915 3.38153 12.8977 3.28283C12.904 3.18412 12.8826 3.08562 12.836 2.99801C12.7893 2.91041 12.7191 2.83706 12.633 2.78593C12.547 2.7348 12.4483 2.70785 12.3477 2.70801H2.43433C2.33401 2.70842 2.2357 2.73571 2.14997 2.78696C2.06424 2.83821 1.99434 2.91148 1.94779 2.99888C1.90123 3.08628 1.87978 3.18451 1.88574 3.283C1.8917 3.3815 1.92485 3.47653 1.98162 3.55788L6.93832 10.5996Z" fill="#333333"/>
</svg>
