<svg width="24" height="24" viewBox="0 0 24 24" fill="none" xmlns="http://www.w3.org/2000/svg">
<path fill-rule="evenodd" clip-rule="evenodd" d="M9.00014 1.39387C9.00014 1.05288 8.86468 0.725855 8.62356 0.484737C8.38244 0.243618 8.05542 0.10816 7.71443 0.10816C7.37343 0.10816 7.04641 0.243618 6.80529 0.484737C6.56417 0.725855 6.42871 1.05288 6.42871 1.39387V6.05159H5.143C4.68834 6.05159 4.2523 6.2322 3.93081 6.55369C3.60932 6.87518 3.42871 7.31122 3.42871 7.76587V12.9087C3.42871 14.2727 3.97055 15.5808 4.93502 16.5453C5.89949 17.5098 7.2076 18.0516 8.57157 18.0516H10.7144V22.6596C10.7144 23.0006 10.8499 23.3276 11.091 23.5687C11.3321 23.8098 11.6591 23.9453 12.0001 23.9453C12.3411 23.9453 12.6682 23.8098 12.9093 23.5687C13.1504 23.3276 13.2859 23.0006 13.2859 22.6596V18.0516H15.4287C16.7927 18.0516 18.1008 17.5098 19.0653 16.5453C20.0297 15.5808 20.5716 14.2727 20.5716 12.9087V7.76587C20.5716 7.31122 20.391 6.87518 20.0695 6.55369C19.748 6.2322 19.3119 6.05159 18.8573 6.05159H17.5716V1.39216C17.5716 1.05117 17.4361 0.724141 17.195 0.483022C16.9539 0.241904 16.6268 0.106445 16.2859 0.106445C15.9449 0.106445 15.6178 0.241904 15.3767 0.483022C15.1356 0.724141 15.0001 1.05117 15.0001 1.39216V6.05502H9.00014V1.39045V1.39387Z" fill="#333333"/>
</svg>
