<svg width="32" height="32" viewBox="0 0 32 32" fill="none" xmlns="http://www.w3.org/2000/svg">
<path d="M24 11.675V9.06699C24 6.04966 24 4.54166 22.9667 3.60433C21.932 2.66699 20.2693 2.66699 16.94 2.66699H11.06C7.73067 2.66699 6.068 2.66699 5.03333 3.60433C3.99867 4.54166 4 6.04966 4 9.06699V17.6003C4 20.6177 4 22.1257 5.03333 23.063C6.068 24.0003 7.73067 24.0003 11.06 24.0003H16.94M8 8.00033H20M8 13.3337H9.33333M13.3333 13.3337H14.6667M18.6667 13.3337H20M8 18.667H9.33333M13.3333 18.667H14.6667M27.608 20.0057C27.2427 19.079 26.3013 17.9923 24.16 17.9923C21.672 17.9923 20.624 19.1323 20.412 19.7417C20.08 20.5563 20.0493 22.315 23.064 22.415C26.664 22.535 28.1707 23.0243 27.984 24.9977C27.7987 26.971 25.724 27.2457 24.16 27.3523C22.5533 27.3057 20.5667 26.9697 20 25.2657M23.992 16.0003V17.915M24.004 27.3457V29.3337" stroke="#293359" stroke-width="2" stroke-linecap="round" stroke-linejoin="round"/>
</svg>
