<svg width="16" height="16" viewBox="0 0 16 16" fill="none" xmlns="http://www.w3.org/2000/svg">
<path d="M5.80634 5.14026L7.33301 3.60692V10.0003C7.33301 10.1771 7.40325 10.3466 7.52827 10.4717C7.65329 10.5967 7.82286 10.6669 7.99967 10.6669C8.17649 10.6669 8.34605 10.5967 8.47108 10.4717C8.5961 10.3466 8.66634 10.1771 8.66634 10.0003V3.60692L10.193 5.14026C10.255 5.20274 10.3287 5.25234 10.41 5.28618C10.4912 5.32003 10.5783 5.33746 10.6663 5.33746C10.7543 5.33746 10.8415 5.32003 10.9227 5.28618C11.004 5.25234 11.0777 5.20274 11.1397 5.14026C11.2022 5.07828 11.2518 5.00455 11.2856 4.92331C11.3194 4.84207 11.3369 4.75493 11.3369 4.66692C11.3369 4.57892 11.3194 4.49178 11.2856 4.41054C11.2518 4.3293 11.2022 4.25557 11.1397 4.19359L8.47301 1.52692C8.40961 1.46623 8.33484 1.41865 8.25301 1.38692C8.0907 1.32024 7.90865 1.32024 7.74634 1.38692C7.66451 1.41865 7.58974 1.46623 7.52634 1.52692L4.85967 4.19359C4.79752 4.25575 4.74821 4.32954 4.71457 4.41076C4.68093 4.49197 4.66361 4.57902 4.66361 4.66692C4.66361 4.75483 4.68093 4.84187 4.71457 4.92309C4.74821 5.0043 4.79752 5.0781 4.85967 5.14026C4.92183 5.20242 4.99563 5.25172 5.07684 5.28536C5.15806 5.319 5.2451 5.33632 5.33301 5.33632C5.42091 5.33632 5.50796 5.319 5.58917 5.28536C5.67039 5.25172 5.74418 5.20242 5.80634 5.14026ZM13.9997 9.33359C13.8229 9.33359 13.6533 9.40383 13.5283 9.52885C13.4032 9.65388 13.333 9.82345 13.333 10.0003V12.6669C13.333 12.8437 13.2628 13.0133 13.1377 13.1383C13.0127 13.2634 12.8432 13.3336 12.6663 13.3336H3.33301C3.1562 13.3336 2.98663 13.2634 2.8616 13.1383C2.73658 13.0133 2.66634 12.8437 2.66634 12.6669V10.0003C2.66634 9.82345 2.5961 9.65388 2.47108 9.52885C2.34605 9.40383 2.17649 9.33359 1.99967 9.33359C1.82286 9.33359 1.65329 9.40383 1.52827 9.52885C1.40325 9.65388 1.33301 9.82345 1.33301 10.0003V12.6669C1.33301 13.1974 1.54372 13.7061 1.91879 14.0811C2.29387 14.4562 2.80257 14.6669 3.33301 14.6669H12.6663C13.1968 14.6669 13.7055 14.4562 14.0806 14.0811C14.4556 13.7061 14.6663 13.1974 14.6663 12.6669V10.0003C14.6663 9.82345 14.5961 9.65388 14.4711 9.52885C14.3461 9.40383 14.1765 9.33359 13.9997 9.33359Z" fill="#333333"/>
</svg>
