<svg width="62" height="70" viewBox="0 0 62 70" fill="none" xmlns="http://www.w3.org/2000/svg">
<path d="M29.2773 3.55078C30.3464 2.94618 31.6536 2.94618 32.7227 3.55078L58.2227 17.9727C59.3206 18.5936 59.9999 19.7572 60 21.0186V49.6865C59.9999 50.9479 59.3206 52.1114 58.2227 52.7324L32.7227 67.1543C31.6536 67.7589 30.3464 67.7589 29.2773 67.1543L3.77734 52.7324C2.67938 52.1114 2.00015 50.9479 2 49.6865V21.0186C2.00015 19.7572 2.67938 18.5936 3.77734 17.9727L29.2773 3.55078Z" fill="white" stroke="#293359" stroke-width="3"/>
<path d="M39.1283 29.5621L22.5967 24.0504C22.0967 23.8838 21.8467 23.8004 21.6733 23.9254C21.5 24.0504 21.5 24.3138 21.5 24.8421V37.0188L39.1283 31.1421C40.1083 30.8154 40.5983 30.6521 40.5983 30.3521C40.5983 30.0521 40.1083 29.8888 39.1283 29.5621Z" fill="#293359" fill-opacity="0.8"/>
<path d="M21.5 37.0188V24.8421C21.5 24.3138 21.5 24.0504 21.6733 23.9254C21.8467 23.8004 22.0967 23.8838 22.5967 24.0504L39.1283 29.5621C40.1083 29.8888 40.5983 30.0521 40.5983 30.3521C40.5983 30.6521 40.1083 30.8154 39.1283 31.1421L21.5 37.0188ZM21.5 37.0188V47.0188" stroke="#293359" stroke-opacity="0.8" stroke-width="3.33333" stroke-linecap="round"/>
</svg>
