<svg width="32" height="32" viewBox="0 0 32 32" fill="none" xmlns="http://www.w3.org/2000/svg">
<path d="M5.33325 24.2282V13.2568C5.33325 12.8708 5.42792 12.5051 5.61725 12.1597C5.80658 11.8143 6.06747 11.5298 6.39992 11.3063L14.3999 5.82063C14.8666 5.49555 15.3999 5.33301 15.9999 5.33301C16.5999 5.33301 17.1332 5.49555 17.5999 5.82063L25.5999 11.3063C25.9332 11.5298 26.1946 11.8143 26.3839 12.1597C26.5732 12.5051 26.6675 12.8708 26.6666 13.2568V24.2282C26.6666 24.8987 26.4052 25.4729 25.8826 25.9508C25.3599 26.4286 24.7324 26.6671 23.9999 26.6663H19.9999C19.6221 26.6663 19.3057 26.5493 19.0506 26.3152C18.7955 26.0812 18.6675 25.7919 18.6666 25.4473V19.352C18.6666 19.0067 18.5386 18.7173 18.2826 18.4841C18.0266 18.2508 17.7101 18.1338 17.3332 18.133H14.6666C14.2888 18.133 13.9724 18.25 13.7172 18.4841C13.4621 18.7181 13.3341 19.0075 13.3332 19.352V25.4473C13.3332 25.7927 13.2052 26.0824 12.9492 26.3165C12.6932 26.5505 12.3768 26.6671 11.9999 26.6663H7.99992C7.26658 26.6663 6.63903 26.4278 6.11725 25.9508C5.59547 25.4737 5.33414 24.8995 5.33325 24.2282Z" fill="#333333" fill-opacity="0.6"/>
</svg>
