<svg width="62" height="70" viewBox="0 0 62 70" fill="none" xmlns="http://www.w3.org/2000/svg">
<path d="M29.2773 3.55078C30.3464 2.94618 31.6536 2.94618 32.7227 3.55078L58.2227 17.9727C59.3206 18.5936 59.9999 19.7572 60 21.0186V49.6865C59.9999 50.9479 59.3206 52.1114 58.2227 52.7324L32.7227 67.1543C31.6536 67.7589 30.3464 67.7589 29.2773 67.1543L3.77734 52.7324C2.67938 52.1114 2.00015 50.9479 2 49.6865V21.0186C2.00015 19.7572 2.67938 18.5936 3.77734 17.9727L29.2773 3.55078Z" fill="white" stroke="#293359" stroke-width="3"/>
<path d="M25.5003 24.1025C20.867 24.1025 16.917 27.5692 16.917 32.0692C16.917 35.1742 18.3703 37.7875 20.297 39.9525C22.2187 42.1109 24.697 43.9225 26.9353 45.4392L30.8003 48.0559C31.007 48.1956 31.2508 48.2703 31.5003 48.2703C31.7498 48.2703 31.9936 48.1956 32.2003 48.0559L36.0653 45.4392C38.3053 43.9225 40.782 42.1109 42.702 39.9525C44.6303 37.7875 46.0837 35.1742 46.0837 32.0692C46.0837 27.5692 42.1337 24.1025 37.5003 24.1025C35.1103 24.1025 33.0087 25.2225 31.5003 26.6725C29.992 25.2225 27.8887 24.1025 25.5003 24.1025Z" fill="#293359" fill-opacity="0.8"/>
</svg>
