<svg width="37" height="37" viewBox="0 0 37 37" fill="none" xmlns="http://www.w3.org/2000/svg">
<path d="M5.01074 7.70833C5.01074 6.58393 5.45741 5.50557 6.25249 4.7105C7.04756 3.91542 8.12592 3.46875 9.25033 3.46875H24.667C25.7914 3.46875 26.8698 3.91542 27.6648 4.7105C28.4599 5.50557 28.9066 6.58393 28.9066 7.70833V16.1875C28.9066 16.4942 28.7848 16.7883 28.5679 17.0051C28.3511 17.2219 28.057 17.3438 27.7503 17.3438C27.4437 17.3438 27.1496 17.2219 26.9327 17.0051C26.7159 16.7883 26.5941 16.4942 26.5941 16.1875V7.70833C26.5941 6.64458 25.7307 5.78125 24.667 5.78125H9.25033C8.18658 5.78125 7.32324 6.64458 7.32324 7.70833V29.8806C7.32311 29.9464 7.33983 30.0111 7.37179 30.0686C7.40376 30.1261 7.44991 30.1745 7.50585 30.2091C7.5618 30.2437 7.62568 30.2634 7.6914 30.2664C7.75712 30.2693 7.82251 30.2554 7.88133 30.2259L9.42299 29.4551C9.87098 29.2312 10.3725 29.1363 10.8713 29.1813C11.3701 29.2262 11.8466 29.4091 12.2473 29.7095L13.6441 30.7563C13.7108 30.8063 13.7919 30.8333 13.8753 30.8333C13.9587 30.8333 14.0399 30.8063 14.1066 30.7563L15.4355 29.7588C15.8646 29.4373 16.3797 29.2509 16.9151 29.2235C17.4506 29.196 17.982 29.3287 18.4417 29.6046L19.4808 30.2275C19.6126 30.3048 19.7278 30.4075 19.8196 30.5296C19.9114 30.6517 19.9782 30.7909 20.0159 30.9389C20.0537 31.087 20.0617 31.2411 20.0396 31.3923C20.0174 31.5434 19.9655 31.6887 19.8869 31.8197C19.8082 31.9508 19.7044 32.0649 19.5814 32.1555C19.4584 32.2462 19.3186 32.3115 19.1702 32.3478C19.0217 32.3841 18.8676 32.3906 18.7166 32.367C18.5657 32.3433 18.4209 32.29 18.2907 32.21L17.2531 31.5872C17.1874 31.5476 17.1114 31.5285 17.0348 31.5323C16.9581 31.5362 16.8844 31.5628 16.823 31.6088L15.4941 32.6063C15.0271 32.9565 14.4591 33.1458 13.8753 33.1458C13.2916 33.1458 12.7236 32.9565 12.2566 32.6063L10.8598 31.5579C10.8026 31.5154 10.7347 31.4895 10.6637 31.4833C10.5926 31.477 10.5212 31.4906 10.4575 31.5225L8.91578 32.2933C8.50446 32.4991 8.04736 32.5963 7.5879 32.5757C7.12844 32.5551 6.68186 32.4174 6.2906 32.1757C5.89933 31.9339 5.57635 31.5962 5.35235 31.1945C5.12835 30.7928 5.01076 30.3405 5.01074 29.8806V7.70833Z" fill="white"/>
<path d="M26.9795 22.7399C25.8551 22.7399 24.7767 23.1866 23.9817 23.9817C23.1866 24.7767 22.7399 25.8551 22.7399 26.9795C22.7399 28.1039 23.1866 29.1823 23.9817 29.9773C24.7767 30.7724 25.8551 31.2191 26.9795 31.2191C28.1039 31.2191 29.1823 30.7724 29.9773 29.9773C30.7724 29.1823 31.2191 28.1039 31.2191 26.9795C31.2191 25.8551 30.7724 24.7767 29.9773 23.9817C29.1823 23.1866 28.1039 22.7399 26.9795 22.7399ZM20.4274 26.9795C20.4274 26.1191 20.5969 25.2671 20.9262 24.4721C21.2554 23.6772 21.7381 22.9549 22.3465 22.3465C22.9549 21.7381 23.6772 21.2554 24.4721 20.9262C25.2671 20.5969 26.1191 20.4274 26.9795 20.4274C27.8399 20.4274 28.6919 20.5969 29.4869 20.9262C30.2818 21.2554 31.0041 21.7381 31.6125 22.3465C32.2209 22.9549 32.7036 23.6772 33.0328 24.4721C33.3621 25.2671 33.5316 26.1191 33.5316 26.9795C33.5316 28.7172 32.8413 30.3838 31.6125 31.6125C30.3838 32.8413 28.7172 33.5316 26.9795 33.5316C25.2418 33.5316 23.5752 32.8413 22.3465 31.6125C21.1177 30.3838 20.4274 28.7172 20.4274 26.9795ZM29.8208 24.8134C30.0373 25.0302 30.1589 25.3241 30.1589 25.6305C30.1589 25.9369 30.0373 26.2308 29.8208 26.4476L26.3058 29.9626L24.1382 27.7966C24.0246 27.6907 23.9335 27.5631 23.8703 27.4212C23.8071 27.2794 23.7731 27.1263 23.7704 26.971C23.7676 26.8158 23.7962 26.6616 23.8543 26.5176C23.9125 26.3736 23.9991 26.2429 24.1089 26.1331C24.2186 26.0233 24.3494 25.9367 24.4934 25.8786C24.6374 25.8204 24.7916 25.7918 24.9468 25.7946C25.1021 25.7973 25.2552 25.8313 25.397 25.8945C25.5389 25.9577 25.6665 26.0488 25.7724 26.1624L26.3058 26.6927L28.1866 24.8119C28.4034 24.5954 28.6973 24.4738 29.0037 24.4738C29.3101 24.4738 29.604 24.5969 29.8208 24.8134ZM9.63574 10.792C9.63574 10.4853 9.75756 10.1912 9.9744 9.9744C10.1912 9.75756 10.4853 9.63574 10.792 9.63574H20.8128C21.1195 9.63574 21.4136 9.75756 21.6304 9.9744C21.8473 10.1912 21.9691 10.4853 21.9691 10.792C21.9691 11.0986 21.8473 11.3927 21.6304 11.6096C21.4136 11.8264 21.1195 11.9482 20.8128 11.9482H10.792C10.4853 11.9482 10.1912 11.8264 9.9744 11.6096C9.75756 11.3927 9.63574 11.0986 9.63574 10.792ZM9.63574 15.417C9.63574 15.1103 9.75756 14.8162 9.9744 14.5994C10.1912 14.3826 10.4853 14.2607 10.792 14.2607H23.1253C23.432 14.2607 23.7261 14.3826 23.9429 14.5994C24.1598 14.8162 24.2816 15.1103 24.2816 15.417C24.2816 15.7236 24.1598 16.0177 23.9429 16.2346C23.7261 16.4514 23.432 16.5732 23.1253 16.5732H10.792C10.4853 16.5732 10.1912 16.4514 9.9744 16.2346C9.75756 16.0177 9.63574 15.7236 9.63574 15.417ZM9.63574 20.042C9.63574 19.7353 9.75756 19.4412 9.9744 19.2244C10.1912 19.0076 10.4853 18.8857 10.792 18.8857H16.1878C16.4945 18.8857 16.7886 19.0076 17.0054 19.2244C17.2223 19.4412 17.3441 19.7353 17.3441 20.042C17.3441 20.3486 17.2223 20.6427 17.0054 20.8596C16.7886 21.0764 16.4945 21.1982 16.1878 21.1982H10.792C10.4853 21.1982 10.1912 21.0764 9.9744 20.8596C9.75756 20.6427 9.63574 20.3486 9.63574 20.042ZM9.63574 24.667C9.63574 24.3603 9.75756 24.0662 9.9744 23.8494C10.1912 23.6326 10.4853 23.5107 10.792 23.5107H16.1878C16.4945 23.5107 16.7886 23.6326 17.0054 23.8494C17.2223 24.0662 17.3441 24.3603 17.3441 24.667C17.3441 24.9736 17.2223 25.2677 17.0054 25.4846C16.7886 25.7014 16.4945 25.8232 16.1878 25.8232H10.792C10.4853 25.8232 10.1912 25.7014 9.9744 25.4846C9.75756 25.2677 9.63574 24.9736 9.63574 24.667Z" fill="white"/>
</svg>
