<svg width="16" height="16" viewBox="0 0 16 16" fill="none" xmlns="http://www.w3.org/2000/svg">
<path d="M7.99935 1.33331C5.06602 1.33331 2.66602 3.73331 2.66602 6.66665C2.66602 10.2666 7.33268 14.3333 7.53268 14.5333C7.66602 14.6 7.86602 14.6666 7.99935 14.6666C8.13268 14.6666 8.33268 14.6 8.46602 14.5333C8.66602 14.3333 13.3327 10.2666 13.3327 6.66665C13.3327 3.73331 10.9327 1.33331 7.99935 1.33331ZM7.99935 13.1333C6.59935 11.8 3.99935 8.93331 3.99935 6.66665C3.99935 4.46665 5.79935 2.66665 7.99935 2.66665C10.1993 2.66665 11.9993 4.46665 11.9993 6.66665C11.9993 8.86665 9.39935 11.8 7.99935 13.1333ZM7.99935 3.99998C6.53268 3.99998 5.33268 5.19998 5.33268 6.66665C5.33268 8.13331 6.53268 9.33331 7.99935 9.33331C9.46602 9.33331 10.666 8.13331 10.666 6.66665C10.666 5.19998 9.46602 3.99998 7.99935 3.99998ZM7.99935 7.99998C7.26602 7.99998 6.66602 7.39998 6.66602 6.66665C6.66602 5.93331 7.26602 5.33331 7.99935 5.33331C8.73268 5.33331 9.33268 5.93331 9.33268 6.66665C9.33268 7.39998 8.73268 7.99998 7.99935 7.99998Z" fill="#555555"/>
</svg>
