<svg width="40" height="40" viewBox="0 0 40 40" fill="none" xmlns="http://www.w3.org/2000/svg">
<path fill-rule="evenodd" clip-rule="evenodd" d="M30.0532 14.4639C30.4606 14.1246 30.9861 13.9609 31.5142 14.009C32.0422 14.057 32.5296 14.3127 32.8692 14.7199L37.0352 19.7199C37.3597 20.1289 37.5114 20.6486 37.4579 21.168C37.4044 21.6874 37.1499 22.1652 36.7488 22.4995C36.3477 22.8337 35.8318 22.9979 35.3113 22.9569C34.7908 22.9158 34.307 22.6729 33.9632 22.2799L29.7972 17.2799C29.4578 16.8725 29.2942 16.347 29.3422 15.8189C29.3902 15.2909 29.6459 14.8035 30.0532 14.4639Z" fill="#D9D9D9"/>
<path fill-rule="evenodd" clip-rule="evenodd" d="M30.0544 27.536C29.6468 27.1967 29.3907 26.7095 29.3423 26.1814C29.294 25.6534 29.4573 25.1277 29.7964 24.72L33.9644 19.72C34.1301 19.5111 34.336 19.3374 34.5698 19.2093C34.8037 19.0811 35.0608 19.001 35.3261 18.9737C35.5914 18.9463 35.8595 18.9723 36.1146 19.0501C36.3696 19.1279 36.6066 19.256 36.8115 19.4267C37.0163 19.5974 37.185 19.8074 37.3075 20.0443C37.43 20.2811 37.5039 20.5401 37.5249 20.806C37.5459 21.0718 37.5134 21.3392 37.4295 21.5923C37.3456 21.8455 37.212 22.0793 37.0364 22.28L32.8704 27.28C32.5308 27.6872 32.0434 27.943 31.5154 27.991C30.9873 28.039 30.4618 27.8753 30.0544 27.536Z" fill="#D9D9D9"/>
<path fill-rule="evenodd" clip-rule="evenodd" d="M35 21C35 21.5304 34.7893 22.0391 34.4142 22.4142C34.0391 22.7893 33.5304 23 33 23H20C19.4696 23 18.9609 22.7893 18.5858 22.4142C18.2107 22.0391 18 21.5304 18 21C18 20.4696 18.2107 19.9609 18.5858 19.5858C18.9609 19.2107 19.4696 19 20 19H33C33.5304 19 34.0391 19.2107 34.4142 19.5858C34.7893 19.9609 35 20.4696 35 21ZM6 7C6 6.46957 6.21071 5.96086 6.58579 5.58579C6.96086 5.21071 7.46957 5 8 5H26C26.5304 5 27.0391 5.21071 27.4142 5.58579C27.7893 5.96086 28 6.46957 28 7C28 7.53043 27.7893 8.03914 27.4142 8.41421C27.0391 8.78929 26.5304 9 26 9H8C7.46957 9 6.96086 8.78929 6.58579 8.41421C6.21071 8.03914 6 7.53043 6 7ZM6 35C6 34.4696 6.21071 33.9609 6.58579 33.5858C6.96086 33.2107 7.46957 33 8 33H26C26.5304 33 27.0391 33.2107 27.4142 33.5858C27.7893 33.9609 28 34.4696 28 35C28 35.5304 27.7893 36.0391 27.4142 36.4142C27.0391 36.7893 26.5304 37 26 37H8C7.46957 37 6.96086 36.7893 6.58579 36.4142C6.21071 36.0391 6 35.5304 6 35Z" fill="#D9D9D9"/>
<path fill-rule="evenodd" clip-rule="evenodd" d="M26 5C26.5304 5 27.0391 5.21071 27.4142 5.58579C27.7893 5.96086 28 6.46957 28 7V15C28 15.5304 27.7893 16.0391 27.4142 16.4142C27.0391 16.7893 26.5304 17 26 17C25.4696 17 24.9609 16.7893 24.5858 16.4142C24.2107 16.0391 24 15.5304 24 15V7C24 6.46957 24.2107 5.96086 24.5858 5.58579C24.9609 5.21071 25.4696 5 26 5ZM26 25C26.5304 25 27.0391 25.2107 27.4142 25.5858C27.7893 25.9609 28 26.4696 28 27V35C28 35.5304 27.7893 36.0391 27.4142 36.4142C27.0391 36.7893 26.5304 37 26 37C25.4696 37 24.9609 36.7893 24.5858 36.4142C24.2107 36.0391 24 35.5304 24 35V27C24 26.4696 24.2107 25.9609 24.5858 25.5858C24.9609 25.2107 25.4696 25 26 25ZM8 5C8.53043 5 9.03914 5.21071 9.41421 5.58579C9.78929 5.96086 10 6.46957 10 7V35C10 35.5304 9.78929 36.0391 9.41421 36.4142C9.03914 36.7893 8.53043 37 8 37C7.46957 37 6.96086 36.7893 6.58579 36.4142C6.21071 36.0391 6 35.5304 6 35V7C6 6.46957 6.21071 5.96086 6.58579 5.58579C6.96086 5.21071 7.46957 5 8 5Z" fill="#D9D9D9"/>
</svg>
