<svg width="40" height="40" viewBox="0 0 40 40" fill="none" xmlns="http://www.w3.org/2000/svg">
<path d="M32.3756 29.9999H27.084C26.6118 29.9999 26.2162 29.8399 25.8973 29.5199C25.5784 29.1999 25.4184 28.8044 25.4173 28.3333C25.4162 27.8621 25.5762 27.4666 25.8973 27.1466C26.2184 26.8266 26.614 26.6666 27.084 26.6666H32.3756L30.8757 25.1666C30.5701 24.861 30.4173 24.4794 30.4173 24.0216C30.4173 23.5638 30.584 23.1677 30.9173 22.8333C31.2229 22.5277 31.6118 22.3749 32.084 22.3749C32.5562 22.3749 32.9451 22.5277 33.2507 22.8333L37.584 27.1666C37.9173 27.4999 38.084 27.8888 38.084 28.3333C38.084 28.7777 37.9173 29.1666 37.584 29.4999L33.2507 33.8333C32.9451 34.1388 32.5634 34.2988 32.1057 34.3133C31.6479 34.3277 31.2518 34.1677 30.9173 33.8333C30.6118 33.5277 30.459 33.1388 30.459 32.6666C30.459 32.1944 30.6118 31.8055 30.9173 31.4999L32.3756 29.9999ZM16.6673 16.6666C17.584 16.6666 18.369 16.3405 19.0223 15.6883C19.6757 15.036 20.0018 14.251 20.0007 13.3333C19.9995 12.4155 19.6734 11.631 19.0223 10.9799C18.3712 10.3288 17.5862 10.0021 16.6673 9.99992C15.7484 9.9977 14.964 10.3244 14.314 10.9799C13.664 11.6355 13.3373 12.4199 13.334 13.3333C13.3307 14.2466 13.6573 15.0316 14.314 15.6883C14.9707 16.3449 15.7551 16.671 16.6673 16.6666ZM3.33398 16.9999C3.33398 12.8333 4.67454 9.51381 7.35565 7.04159C10.0368 4.56936 13.1407 3.33325 16.6673 3.33325C18.6673 3.33325 20.4662 3.68047 22.064 4.37492C23.6618 5.06936 25.0368 6.0277 26.189 7.24992C27.3412 8.47214 28.2368 9.90992 28.8757 11.5633C29.5145 13.2166 29.8757 15.001 29.959 16.9166C29.9868 17.3888 29.8412 17.7849 29.5223 18.1049C29.2034 18.4249 28.8073 18.5844 28.334 18.5833C27.8607 18.5821 27.4651 18.4221 27.1473 18.1033C26.8295 17.7844 26.6557 17.3888 26.6257 16.9166C26.4868 14.111 25.4801 11.7016 23.6056 9.68825C21.7312 7.67492 19.4184 6.6677 16.6673 6.66659C13.8618 6.66659 11.494 7.63214 9.56398 9.56325C7.63398 11.4944 6.66843 13.9733 6.66732 16.9999C6.66732 18.9721 7.48676 21.2294 9.12565 23.7716C10.7645 26.3138 13.2784 29.1399 16.6673 32.2499C17.0562 31.9166 17.4245 31.5833 17.7723 31.2499C18.1201 30.9166 18.4462 30.5833 18.7507 30.2499C19.084 29.9166 19.4801 29.7499 19.939 29.7499C20.3979 29.7499 20.7934 29.9027 21.1257 30.2083C21.4579 30.5138 21.6318 30.8955 21.6473 31.3533C21.6629 31.811 21.5029 32.2071 21.1673 32.5416C20.7229 33.0138 20.2995 33.4377 19.8973 33.8133C19.4951 34.1888 19.1545 34.4871 18.8757 34.7083C18.5701 34.986 18.2229 35.1944 17.834 35.3333C17.4451 35.4721 17.0562 35.5416 16.6673 35.5416C16.2784 35.5416 15.8895 35.4721 15.5007 35.3333C15.1118 35.1944 14.7645 34.986 14.459 34.7083C13.3479 33.6805 12.1395 32.486 10.834 31.1249C9.52843 29.7638 8.3201 28.3127 7.20898 26.7716C6.09787 25.2305 5.17454 23.626 4.43898 21.9583C3.70343 20.2905 3.3351 18.6377 3.33398 16.9999ZM16.6673 24.9999C17.834 24.9999 18.9384 24.7638 19.9806 24.2916C21.0229 23.8194 21.9462 23.1527 22.7507 22.2916C22.8895 22.1527 22.9868 21.9927 23.0423 21.8116C23.0979 21.6305 23.1257 21.4433 23.1257 21.2499C23.1257 20.9444 23.0634 20.6594 22.939 20.3949C22.8145 20.1305 22.6129 19.9294 22.334 19.7916C21.4729 19.2916 20.5629 18.9233 19.604 18.6866C18.6451 18.4499 17.6662 18.3321 16.6673 18.3333C15.6684 18.3344 14.689 18.4527 13.729 18.6883C12.769 18.9238 11.8595 19.2916 11.0007 19.7916C10.7507 19.9305 10.5562 20.1249 10.4173 20.3749C10.2784 20.6249 10.209 20.9027 10.209 21.2083C10.209 21.4305 10.2368 21.6321 10.2923 21.8133C10.3479 21.9944 10.4451 22.1538 10.584 22.2916C11.3895 23.1527 12.3134 23.8194 13.3556 24.2916C14.3979 24.7638 15.5018 24.9999 16.6673 24.9999Z" fill="#293359"/>
</svg>
