<svg width="32" height="32" viewBox="0 0 32 32" fill="none" xmlns="http://www.w3.org/2000/svg">
<path d="M12.1428 7.26433C12.9401 4.93099 16.1641 4.86033 17.1095 7.05233L17.1895 7.26566L18.2655 10.4123C18.5121 11.134 18.9105 11.7943 19.434 12.3489C19.9575 12.9034 20.5939 13.3393 21.3001 13.627L21.5895 13.735L24.7361 14.8097C27.0695 15.607 27.1401 18.831 24.9495 19.7763L24.7361 19.8563L21.5895 20.9323C20.8676 21.1788 20.207 21.5772 19.6522 22.1007C19.0974 22.6242 18.6613 23.2606 18.3735 23.967L18.2655 24.255L17.1908 27.403C16.3935 29.7363 13.1695 29.807 12.2255 27.6163L12.1428 27.403L11.0681 24.2563C10.8217 23.5344 10.4233 22.8738 9.89979 22.319C9.37629 21.7642 8.73986 21.3282 8.03347 21.0403L7.74547 20.9323L4.59881 19.8577C2.26414 19.0603 2.19347 15.8363 4.38547 14.8923L4.59881 14.8097L7.74547 13.735C8.46712 13.4884 9.12749 13.0899 9.68204 12.5664C10.2366 12.0429 10.6724 11.4066 10.9601 10.7003L11.0681 10.4123L12.1428 7.26433ZM25.3335 2.66699C25.5829 2.66699 25.8274 2.73696 26.039 2.86895C26.2507 3.00095 26.4211 3.18966 26.5308 3.41366L26.5948 3.56966L27.0615 4.93766L28.4308 5.40433C28.6808 5.48925 28.8999 5.64648 29.0604 5.85608C29.221 6.06568 29.3157 6.31822 29.3325 6.58169C29.3494 6.84516 29.2876 7.1077 29.1551 7.33604C29.0226 7.56438 28.8253 7.74825 28.5881 7.86433L28.4308 7.92833L27.0628 8.39499L26.5961 9.76433C26.5111 10.0142 26.3537 10.2333 26.144 10.3936C25.9344 10.554 25.6818 10.6486 25.4183 10.6653C25.1549 10.682 24.8924 10.6201 24.6641 10.4875C24.4359 10.3549 24.2521 10.1575 24.1361 9.92033L24.0721 9.76433L23.6055 8.39633L22.2361 7.92966C21.9862 7.84473 21.767 7.68751 21.6065 7.47791C21.446 7.26831 21.3513 7.01577 21.3344 6.7523C21.3176 6.48883 21.3793 6.22628 21.5118 5.99794C21.6444 5.7696 21.8417 5.58574 22.0788 5.46966L22.2361 5.40566L23.6041 4.93899L24.0708 3.56966C24.1607 3.30623 24.3308 3.07754 24.5573 2.91566C24.7837 2.75378 25.0551 2.66683 25.3335 2.66699Z" fill="#293359"/>
</svg>
