<svg width="40" height="40" viewBox="0 0 40 40" fill="none" xmlns="http://www.w3.org/2000/svg">
<path d="M18.4158 20.0235H19.6508C19.7141 19.6668 19.6008 19.3618 19.2058 19.3618C18.8108 19.3618 18.5308 19.5652 18.4158 20.0235ZM11.4541 20.6852L11.3924 20.6752C11.2091 20.6418 10.8858 20.5818 10.6024 20.7752C10.2841 20.9918 10.1941 21.3718 10.5258 21.5001C10.8441 21.6218 11.3141 21.4118 11.3791 21.0802L11.4541 20.6852ZM34.1208 20.5702C34.2241 20.2402 34.1674 19.8268 34.0574 19.6801C33.7524 19.2735 33.0508 19.5952 32.8358 20.3935C32.6958 20.9152 33.0024 21.3102 33.3458 21.3102C33.7141 21.3102 33.9424 21.0168 34.1208 20.5702ZM28.2541 20.6852L28.1924 20.6752C28.0091 20.6418 27.6841 20.5818 27.4024 20.7752C27.0841 20.9918 26.9941 21.3718 27.3258 21.5001C27.6441 21.6218 28.1141 21.4118 28.1774 21.0802L28.2541 20.6852Z" fill="#555555"/>
<path d="M26.8026 10.1333C29.4194 10.1333 31.929 11.1728 33.7794 13.0232C35.6297 14.8736 36.6693 17.3832 36.6693 20C36.6693 22.6168 35.6297 25.1264 33.7794 26.9768C31.929 28.8271 29.4194 29.8667 26.8026 29.8667C24.5367 29.8716 22.3396 29.0886 20.5876 27.6517C21.9036 26.3878 22.8734 24.8074 23.4043 23.0617H22.5843C22.0738 24.6159 21.1836 26.0183 19.9943 27.1417C18.8124 26.0176 17.9286 24.6173 17.4226 23.0667H16.6026C17.1267 24.8051 18.0859 26.3809 19.3893 27.645C17.6443 29.0757 15.4591 29.8604 13.2026 29.8667C10.5858 29.8667 8.07618 28.8271 6.22582 26.9768C4.37546 25.1264 3.33594 22.6168 3.33594 20C3.33594 17.3832 4.37546 14.8736 6.22582 13.0232C8.07618 11.1728 10.5858 10.1333 13.2026 10.1333C15.5526 10.1333 17.6943 10.9833 19.3893 12.355C18.0859 13.6191 17.1267 15.1949 16.6026 16.9333H17.4226C17.9286 15.3827 18.8124 13.9824 19.9943 12.8583C21.1836 13.9817 22.0738 15.3841 22.5843 16.9383H23.4043C22.8734 15.1926 21.9036 13.6122 20.5876 12.3483C22.34 10.911 24.5378 10.128 26.8043 10.1333M30.1009 18.66L29.4193 22.31H30.4226L30.7309 20.64C31.0109 19.6033 31.4426 19.6067 31.6959 19.6117H31.7343L32.0043 18.6617C31.5026 18.6617 31.2059 18.84 31.0526 19.02L30.9626 18.66H30.1009ZM17.2109 17.7333H16.2176L15.5309 21.195C15.3393 22.1867 16.0909 22.3283 16.3193 22.3283C16.5772 22.3367 16.8325 22.2745 17.0576 22.1483L17.1209 21.4117C16.5493 21.5 16.5226 21.245 16.5743 20.965L16.8543 19.4883H17.3626L17.5409 18.7H17.0076L17.2109 17.7333ZM19.1576 18.65C17.6026 18.65 17.3643 20.145 17.3176 20.445L17.3126 20.4683C17.2743 20.6983 17.2493 22.315 18.9676 22.315C19.3876 22.3267 19.9976 22.2767 20.2409 22.1483L20.3926 21.3983C20.0224 21.4592 19.6478 21.4888 19.2726 21.4867H19.2393C18.8426 21.4867 18.2459 21.4883 18.3559 20.6867H20.5193C20.6359 20.1 20.9026 18.65 19.1576 18.65ZM15.5059 18.775C15.0943 18.6183 14.7609 18.6283 14.5893 18.6333H14.5176C14.3493 18.6333 13.1893 18.6333 13.0093 19.5C12.8693 20.175 13.1159 20.4533 13.3526 20.5567C13.6026 20.665 13.7809 20.7667 13.9326 20.8533C14.0104 20.9 14.0848 20.9411 14.1559 20.9767C14.4059 21.1017 14.3609 21.5233 14.0276 21.5233L13.9076 21.5283C13.6509 21.5433 13.1276 21.5717 12.7176 21.435L12.5776 22.185C13.0359 22.3133 13.4043 22.3133 13.7476 22.3133H13.7859C14.0943 22.3167 15.1809 22.3267 15.3376 21.2817C15.4193 20.7483 15.1859 20.505 14.9943 20.3917C14.7668 20.2431 14.529 20.1111 14.2826 19.9967C14.0793 19.9067 13.9259 19.5633 14.2943 19.4633C14.5243 19.4367 14.9943 19.4367 15.2743 19.5133L15.5059 18.775ZM9.66427 17.9083H8.03427L6.82594 20.5817L6.63427 17.9083H5.04427L4.19094 22.3133H5.18427L5.79427 19.13L6.06094 22.3133H7.00427L8.39094 19.2067L7.80594 22.3133H8.83427L9.66427 17.9083ZM9.7776 19.5517L10.0176 19.5217C10.3176 19.4833 10.7526 19.4267 11.0126 19.4367L11.1126 19.4383C11.4243 19.445 11.7276 19.4517 11.6243 19.945C11.5898 19.9472 11.5343 19.9472 11.4576 19.945C10.9359 19.9283 9.55094 19.8867 9.3076 21.2183C9.1926 21.9683 9.84094 22.3517 10.3509 22.325C10.8593 22.3 11.0009 22.2367 11.1776 22.1083L11.3059 22.3133H12.2343L12.6293 20.3267C12.7309 19.8317 12.8959 18.635 11.2293 18.635L11.0693 18.64C10.7993 18.6467 10.4693 18.6567 9.93094 18.7617L9.7776 19.5517ZM25.2543 18.75C25.5859 18.75 25.7626 18.775 26.0176 18.9267L26.6676 18.2783C26.4126 17.9983 26.1193 17.7233 25.3059 17.6933C24.6176 17.6667 23.4393 18.1683 23.0659 19.5383C22.5559 21.3967 23.6759 22.3133 24.7076 22.3133C25.2543 22.3133 25.5859 22.2367 25.9159 22.0833L25.6226 21.1933C24.6059 21.5367 23.8793 21.015 24.0459 19.9583C24.1843 19.065 24.9226 18.7483 25.2543 18.7483M34.3409 18.9467C34.2076 18.8067 34.0543 18.6467 33.7043 18.6467H33.6143C33.0676 18.64 32.2793 18.6317 31.8209 20.1983C31.4976 21.3033 32.1526 22.3117 32.8643 22.3117C33.1959 22.2983 33.5259 22.1583 33.7309 22.0183L33.8576 22.3117H34.9259L35.7926 17.6783H34.7476L34.4809 19.0783C34.4317 19.0366 34.385 18.9921 34.3409 18.945M26.5776 19.5483L26.8176 19.5183C27.1176 19.48 27.5509 19.4233 27.8126 19.4333L27.9126 19.435C28.2243 19.4417 28.5276 19.4483 28.4226 19.9417C28.3893 19.9439 28.3337 19.9439 28.2559 19.9417C27.7359 19.925 26.3509 19.8833 26.1059 21.215C25.9926 21.965 26.6409 22.3483 27.1509 22.3217C27.6593 22.2967 27.7993 22.2333 27.9776 22.105L28.1059 22.31H29.0343L29.4293 20.3233C29.5293 19.8283 29.6959 18.6317 28.0293 18.6317L27.8693 18.6367C27.5993 18.6433 27.2693 18.6533 26.7309 18.7583L26.5776 19.5483ZM21.2226 18.695L20.5476 22.31H21.5409L21.8459 20.655C22.1209 19.6383 22.5559 19.645 22.8059 19.6483H22.8509L23.1059 18.695C22.6109 18.695 22.3176 18.8733 22.1643 19.0517L22.0759 18.695H21.2226Z" fill="#555555"/>
</svg>
