<svg width="32" height="32" viewBox="0 0 32 32" fill="none" xmlns="http://www.w3.org/2000/svg">
<path d="M16.0001 5.33301C8.64808 5.33301 2.66675 11.3143 2.66675 18.6663C2.66552 20.7241 3.1454 22.7537 4.06808 24.593C4.29475 25.0463 4.75608 25.333 5.26142 25.333H26.7374C27.2428 25.333 27.7054 25.0463 27.9321 24.593C28.8548 22.7537 29.3347 20.7241 29.3334 18.6663C29.3334 11.3143 23.3521 5.33301 16.0001 5.33301ZM25.8801 22.6663H6.12008C5.59989 21.397 5.33266 20.0382 5.33342 18.6663C5.33342 12.785 10.1188 7.99967 16.0001 7.99967C21.8814 7.99967 26.6668 12.785 26.6668 18.6663C26.6675 20.0382 26.4003 21.397 25.8801 22.6663Z" fill="#293359"/>
<path d="M14.5853 17.2522C14.3017 17.4376 14.0688 17.6909 13.9075 17.9889C13.7463 18.287 13.6619 18.6206 13.6619 18.9595C13.6619 19.2984 13.7463 19.6319 13.9075 19.93C14.0688 20.2281 14.3017 20.4813 14.5853 20.6668C14.8095 20.8143 15.0605 20.9161 15.324 20.9664C15.5875 21.0167 15.8584 21.0146 16.121 20.9601C16.3837 20.9056 16.6331 20.7998 16.8548 20.6488C17.0766 20.4978 17.2664 20.3046 17.4133 20.0802L22.696 12.0295C22.7009 12.0227 22.7035 12.0145 22.7035 12.0062C22.7035 11.9978 22.7009 11.9896 22.696 11.9828C22.6897 11.9732 22.6799 11.9664 22.6687 11.9639C22.6575 11.9614 22.6458 11.9634 22.636 11.9695L14.5853 17.2522Z" fill="#293359"/>
</svg>
