<svg width="22" height="22" viewBox="0 0 22 22" fill="none" xmlns="http://www.w3.org/2000/svg">
<path fill-rule="evenodd" clip-rule="evenodd" d="M11.8735 3.13907C11.8735 2.90742 11.7815 2.68525 11.6177 2.52145C11.4539 2.35765 11.2318 2.26563 11.0001 2.26562C10.7684 2.26563 10.5463 2.35765 10.3825 2.52145C10.2187 2.68525 10.1267 2.90742 10.1267 3.13907V3.79416H9.64014C8.70383 3.7941 7.80269 4.15087 7.12018 4.79184C6.43766 5.43281 6.02508 6.3098 5.96642 7.24427L5.77339 10.331C5.69877 11.5078 5.30369 12.6416 4.63092 13.61C4.49172 13.81 4.40667 14.0427 4.38403 14.2854C4.3614 14.5281 4.40195 14.7725 4.50175 14.9949C4.60155 15.2172 4.75719 15.41 4.95354 15.5544C5.1499 15.6988 5.38028 15.7899 5.62228 15.8189L8.59812 16.1753V17.1142C8.59812 17.7513 8.85118 18.3622 9.30164 18.8127C9.7521 19.2631 10.3631 19.5162 11.0001 19.5162C11.6371 19.5162 12.2481 19.2631 12.6986 18.8127C13.149 18.3622 13.4021 17.7513 13.4021 17.1142V16.1753L16.3779 15.818C16.6198 15.789 16.85 15.6978 17.0462 15.5535C17.2425 15.4091 17.398 15.2165 17.4978 14.9942C17.5976 14.772 17.6382 14.5278 17.6157 14.2852C17.5931 14.0426 17.5083 13.81 17.3693 13.61C16.6965 12.6416 16.3014 11.5078 16.2268 10.331L16.0338 7.24515C15.9753 6.31052 15.5628 5.43332 14.8803 4.79216C14.1978 4.151 13.2965 3.79411 12.3601 3.79416H11.8735V3.13907ZM9.90829 17.1142C9.90829 17.4038 10.0233 17.6815 10.2281 17.8863C10.4328 18.091 10.7105 18.206 11.0001 18.206C11.2897 18.206 11.5674 18.091 11.7721 17.8863C11.9769 17.6815 12.0919 17.4038 12.0919 17.1142V16.4591H9.90829V17.1142Z" fill="#293359"/>
</svg>
