<svg width="16" height="16" viewBox="0 0 16 16" fill="none" xmlns="http://www.w3.org/2000/svg">
<path d="M8.58804 4.67795L11.7707 5.52528M7.90671 7.20862L9.49738 7.63262M7.98604 11.9773L8.62204 12.1473C10.422 12.6273 11.322 12.8666 12.0314 12.4593C12.74 12.0526 12.9814 11.1573 13.4634 9.36795L14.1454 6.83662C14.628 5.04662 14.8687 4.15195 14.4594 3.44662C14.05 2.74128 13.1507 2.50195 11.35 2.02262L10.714 1.85262C8.91404 1.37262 8.01404 1.13328 7.30538 1.54062C6.59604 1.94728 6.35471 2.84262 5.87204 4.63195L5.19071 7.16328C4.70804 8.95328 4.46671 9.84795 4.87671 10.5533C5.28604 11.2579 6.18604 11.4979 7.98604 11.9773Z" stroke="#555555" stroke-linecap="round"/>
<path d="M8.00067 13.9639L7.366 14.1373C5.57 14.6259 4.67267 14.8706 3.96467 14.4553C3.258 14.0406 3.01667 13.1279 2.536 11.3033L1.85534 8.72194C1.374 6.89728 1.13334 5.98461 1.542 5.26594C1.89534 4.64394 2.66734 4.66661 3.66734 4.66661" stroke="#555555" stroke-linecap="round"/>
</svg>
