<svg width="80" height="81" viewBox="0 0 80 81" fill="none" xmlns="http://www.w3.org/2000/svg">
<g clip-path="url(#clip0_5591_9746)">
<path fill-rule="evenodd" clip-rule="evenodd" d="M78.0636 36.4364L79.6141 42.921C81.4226 50.4905 82.3292 54.2758 81.4827 57.5061C80.8154 60.056 79.4072 62.351 77.4362 64.101C77.1889 64.3209 76.9283 64.5279 76.6543 64.7219C74.1522 66.5063 70.4038 67.4042 63.5848 69.0373C56.0154 70.8459 52.23 71.7524 48.9997 70.906C46.4489 70.2381 44.1533 68.8289 42.4033 66.8565C40.1849 64.3584 39.28 60.5759 37.4714 53.0065L35.918 46.5234L35.1957 43.4836C33.883 37.8786 33.3233 34.7052 34.0478 31.9354C34.7161 29.3863 36.1247 27.0924 38.0959 25.3434C40.594 23.1251 44.3794 22.2186 51.9518 20.4084C59.5167 18.5985 63.3021 17.692 66.5308 18.5355C69.0825 19.2039 71.3787 20.6142 73.1288 22.5879C75.3472 25.086 76.2521 28.8685 78.0636 36.4364ZM47.9598 49.3013C47.8835 48.9819 47.8708 48.6506 47.9226 48.3263C47.9743 48.002 48.0894 47.6911 48.2614 47.4113C48.4333 47.1315 48.6587 46.8883 48.9246 46.6957C49.1905 46.503 49.4918 46.3646 49.8112 46.2884L66.0229 42.4122C66.3459 42.3249 66.6831 42.3034 67.0145 42.3488C67.3459 42.3943 67.6649 42.5058 67.9524 42.6768C68.24 42.8477 68.4903 43.0747 68.6886 43.3441C68.8868 43.6136 69.029 43.9201 69.1066 44.2455C69.1843 44.5709 69.1958 44.9086 69.1405 45.2385C69.0853 45.5685 68.9644 45.884 68.785 46.1664C68.6056 46.4487 68.3713 46.6922 68.0961 46.8824C67.8209 47.0726 67.5103 47.2056 67.1827 47.2735L50.9727 51.1527C50.3282 51.3065 49.6491 51.1982 49.0845 50.8516C48.5199 50.505 48.1144 49.9455 47.9598 49.3013ZM50.2901 59.0296C50.1363 58.3852 50.2446 57.7061 50.5912 57.1415C50.9378 56.5769 51.4943 56.1729 52.1386 56.0184L61.8656 53.6926C62.1891 53.6031 62.5273 53.5797 62.8601 53.6238C63.1928 53.6678 63.5133 53.7784 63.8024 53.949C64.0915 54.1196 64.3433 54.3466 64.5428 54.6166C64.7422 54.8866 64.8853 55.194 64.9634 55.5204C65.0415 55.8469 65.053 56.1857 64.9974 56.5167C64.9417 56.8477 64.82 57.1642 64.6394 57.4471C64.4588 57.7301 64.2231 57.9737 63.9463 58.1636C63.6695 58.3535 63.3573 58.4857 63.0283 58.5524L53.3029 60.8811C52.9835 60.9574 52.6522 60.97 52.3279 60.9183C52.0036 60.8666 51.6927 60.7514 51.4129 60.5795C51.1332 60.4076 50.89 60.1822 50.6973 59.9163C50.5046 59.6503 50.3663 59.3491 50.2901 59.0296Z" fill="#293359"/>
<path opacity="0.5" d="M76.6547 64.7248C77.0581 66.9326 76.8977 69.2064 76.1883 71.3357C75.134 74.5042 72.3079 77.1808 66.6587 82.5325C61.0095 87.8841 58.185 90.5637 54.9656 91.4441C52.4226 92.1412 49.7299 92.0687 47.2281 91.2357C44.0596 90.1814 41.3801 87.3569 36.0284 81.7077L31.4447 76.8669C26.0901 71.2193 23.4135 68.3932 22.5302 65.1753C21.8337 62.6315 21.9072 59.9383 22.7415 57.4363C23.7958 54.2678 26.6219 51.5912 32.2695 46.2366C33.3339 45.225 34.3083 44.3063 35.1929 43.4807L35.9168 46.5233L37.4702 53.0064C39.2788 60.5759 40.1837 64.3583 42.3992 66.858C44.1502 68.8303 46.4468 70.239 48.9986 70.9059C52.2288 71.7524 56.0142 70.8458 63.5836 69.0373C70.4026 67.4041 74.1526 66.5092 76.6547 64.7248Z" fill="#293359"/>
</g>
<defs>
<clipPath id="clip0_5591_9746">
<rect width="80" height="80" fill="white" transform="translate(0 38.1187) rotate(-28.456)"/>
</clipPath>
</defs>
</svg>
