<svg width="80" height="80" viewBox="0 0 80 80" fill="none" xmlns="http://www.w3.org/2000/svg">
<g clip-path="url(#clip0_5591_9755)">
<path d="M62.1376 24.2331C64.9441 22.8643 68.4344 24.2551 69.9435 27.3492L86.9517 62.2227C88.4563 65.3078 87.4104 68.9234 84.6017 70.2933L38.5786 92.7393C35.7788 94.1048 32.2818 92.7062 30.7766 89.62L13.3799 53.9499C11.8708 50.8558 13.3085 48.0435 16.1128 46.6758" fill="#9095A8"/>
<path d="M24.8994 34.051C25.8454 33.5897 27.0237 34.0581 27.5333 35.1029L44.6362 41.655C45.1436 42.6954 44.7872 43.9151 43.8423 44.3759L17.1727 57.383C16.2289 57.8433 15.0518 57.3716 14.5444 56.3312L8.67641 44.2996C8.16682 43.2548 8.52209 42.0384 9.46471 41.5787L24.8994 34.051Z" fill="#9095A8"/>
<path d="M75.9496 29.9365C78.7538 28.5689 82.2442 29.9596 83.7532 33.0537L88.0354 61.7006C88.2659 64.3405 87.3706 68.9493 84.5619 70.3192L38.5826 92.7439C35.7828 94.1094 32.2858 92.7107 30.7806 89.6245L26.5007 60.9765C26.6059 58.2522 27.166 53.7289 29.9703 52.3612" fill="#293359"/>
</g>
<defs>
<clipPath id="clip0_5591_9755">
<rect width="80" height="80" fill="white" transform="translate(0 35.0685) rotate(-25.9991)"/>
</clipPath>
</defs>
</svg>
