<svg width="72" height="72" viewBox="0 0 72 72" fill="none" xmlns="http://www.w3.org/2000/svg">
<path d="M33.75 40.5C36.1369 40.5 38.4261 41.4482 40.114 43.136C41.8018 44.8239 42.75 47.1131 42.75 49.5C42.75 53.8425 40.086 57.285 36.4005 59.535C32.715 61.776 27.7875 63 22.5 63C17.2125 63 12.285 61.776 8.5995 59.535C4.9095 57.285 2.25 53.8425 2.25 49.5C2.25 47.1131 3.19821 44.8239 4.88604 43.136C6.57387 41.4482 8.86305 40.5 11.25 40.5H33.75ZM63.6885 40.536C65.3507 40.7064 66.8905 41.4873 68.0102 42.7275C69.1299 43.9677 69.7498 45.5791 69.75 47.25C69.75 50.7195 67.635 53.5905 64.791 55.485C61.9335 57.393 58.1085 58.5 54 58.5C50.85 58.5 47.88 57.843 45.3735 56.6865C46.5345 54.603 47.2455 52.2045 47.2455 49.5C47.2455 46.0845 45.9675 42.975 43.875 40.5945C44.241 40.5345 44.616 40.503 45 40.5H63L63.6885 40.536ZM22.5 11.25C25.7821 11.25 28.9297 12.5538 31.2504 14.8746C33.5712 17.1953 34.875 20.3429 34.875 23.625C34.875 26.9071 33.5712 30.0547 31.2504 32.3754C28.9297 34.6962 25.7821 36 22.5 36C19.2179 36 16.0703 34.6962 13.7496 32.3754C11.4288 30.0547 10.125 26.9071 10.125 23.625C10.125 20.3429 11.4288 17.1953 13.7496 14.8746C16.0703 12.5538 19.2179 11.25 22.5 11.25ZM54.009 15.7365C55.3575 15.7081 56.6981 15.9491 57.9522 16.4455C59.2063 16.9419 60.3487 17.6837 61.3125 18.6273C62.2762 19.571 63.0419 20.6975 63.5646 21.9409C64.0873 23.1842 64.3565 24.5195 64.3565 25.8682C64.3565 27.217 64.0873 28.5523 63.5646 29.7956C63.0419 31.039 62.2762 32.1655 61.3125 33.1092C60.3487 34.0528 59.2063 34.7946 57.9522 35.291C56.6981 35.7874 55.3575 36.0284 54.009 36C51.3589 35.9441 48.8361 34.8522 46.9816 32.9582C45.1271 31.0642 44.0885 28.519 44.0885 25.8682C44.0885 23.2175 45.1271 20.6723 46.9816 18.7783C48.8361 16.8843 51.3589 15.7924 54.009 15.7365Z" fill="#293359"/>
</svg>
