<svg width="33" height="33" viewBox="0 0 33 33" fill="none" xmlns="http://www.w3.org/2000/svg">
<path d="M9.32667 14.8867C11.2467 18.66 14.34 21.74 18.1133 23.6733L21.0467 20.74C21.4067 20.38 21.94 20.26 22.4067 20.42C23.9 20.9133 25.5133 21.18 27.1667 21.18C27.9 21.18 28.5 21.78 28.5 22.5133V27.1667C28.5 27.9 27.9 28.5 27.1667 28.5C14.6467 28.5 4.5 18.3533 4.5 5.83333C4.5 5.1 5.1 4.5 5.83333 4.5H10.5C11.2333 4.5 11.8333 5.1 11.8333 5.83333C11.8333 7.5 12.1 9.1 12.5933 10.5933C12.74 11.06 12.6333 11.58 12.26 11.9533L9.32667 14.8867Z" fill="#293359"/>
</svg>
