<svg width="33" height="32" viewBox="0 0 33 32" fill="none" xmlns="http://www.w3.org/2000/svg">
<path d="M4 16C3.73478 16 3.48043 15.8946 3.29289 15.7071C3.10536 15.5196 3 15.2652 3 15C3 14.7348 3.10536 14.4804 3.29289 14.2929C3.48043 14.1054 3.73478 14 4 14H7.5C7.76522 14 8.01957 13.8946 8.20711 13.7071C8.39464 13.5196 8.5 13.2652 8.5 13C8.5 12.7348 8.39464 12.4804 8.20711 12.2929C8.01957 12.1054 7.76522 12 7.5 12H5.5C4.70435 12 3.94129 11.6839 3.37868 11.1213C2.81607 10.5587 2.5 9.79565 2.5 9C2.5 8.20435 2.81607 7.44129 3.37868 6.87868C3.94129 6.31607 4.70435 6 5.5 6C5.5 5.73478 5.60536 5.48043 5.79289 5.29289C5.98043 5.10536 6.23478 5 6.5 5C6.76522 5 7.01957 5.10536 7.20711 5.29289C7.39464 5.48043 7.5 5.73478 7.5 6H8.5C8.76522 6 9.01957 6.10536 9.20711 6.29289C9.39464 6.48043 9.5 6.73478 9.5 7C9.5 7.26522 9.39464 7.51957 9.20711 7.70711C9.01957 7.89464 8.76522 8 8.5 8H5.5C5.23478 8 4.98043 8.10536 4.79289 8.29289C4.60536 8.48043 4.5 8.73478 4.5 9C4.5 9.26522 4.60536 9.51957 4.79289 9.70711C4.98043 9.89464 5.23478 10 5.5 10H7.5C8.29565 10 9.05871 10.3161 9.62132 10.8787C10.1839 11.4413 10.5 12.2044 10.5 13C10.5 13.7956 10.1839 14.5587 9.62132 15.1213C9.05871 15.6839 8.29565 16 7.5 16C7.5 16.2652 7.39464 16.5196 7.20711 16.7071C7.01957 16.8946 6.76522 17 6.5 17C6.23478 17 5.98043 16.8946 5.79289 16.7071C5.60536 16.5196 5.5 16.2652 5.5 16H4ZM29.5 7V24C29.5 24.5304 29.2893 25.0391 28.9142 25.4142C28.5391 25.7893 28.0304 26 27.5 26H5.5C4.96957 26 4.46086 25.7893 4.08579 25.4142C3.71071 25.0391 3.5 24.5304 3.5 24V19C3.5 18.7348 3.60536 18.4804 3.79289 18.2929C3.98043 18.1054 4.23478 18 4.5 18C4.76522 18 5.01957 18.1054 5.20711 18.2929C5.39464 18.4804 5.5 18.7348 5.5 19V24H20.5V20H10.5C10.2348 20 9.98043 19.8946 9.79289 19.7071C9.60536 19.5196 9.5 19.2652 9.5 19C9.5 18.7348 9.60536 18.4804 9.79289 18.2929C9.98043 18.1054 10.2348 18 10.5 18H20.5V14H13.5C13.2348 14 12.9804 13.8946 12.7929 13.7071C12.6054 13.5196 12.5 13.2652 12.5 13C12.5 12.7348 12.6054 12.4804 12.7929 12.2929C12.9804 12.1054 13.2348 12 13.5 12H27.5V8H12.5C12.2348 8 11.9804 7.89464 11.7929 7.70711C11.6054 7.51957 11.5 7.26522 11.5 7C11.5 6.73478 11.6054 6.48043 11.7929 6.29289C11.9804 6.10536 12.2348 6 12.5 6H28.5C28.7652 6 29.0196 6.10536 29.2071 6.29289C29.3946 6.48043 29.5 6.73478 29.5 7ZM22.5 18H27.5V14H22.5V18ZM27.5 24V20H22.5V24H27.5Z" fill="#333333"/>
</svg>
