<svg width="32" height="33" viewBox="0 0 32 33" fill="none" xmlns="http://www.w3.org/2000/svg">
<path d="M24.0002 4.49967H19.7602C19.2002 2.95301 17.7335 1.83301 16.0002 1.83301C14.2668 1.83301 12.8002 2.95301 12.2402 4.49967H8.00016C6.5335 4.49967 5.3335 5.69967 5.3335 7.16634V27.1663C5.3335 28.633 6.5335 29.833 8.00016 29.833H16.1468C15.357 29.0682 14.7151 28.1642 14.2535 27.1663H8.00016V7.16634H10.6668V8.49967C10.6668 9.96634 11.8668 11.1663 13.3335 11.1663H18.6668C20.1335 11.1663 21.3335 9.96634 21.3335 8.49967V7.16634H24.0002V13.9397C24.9468 14.073 25.8402 14.353 26.6668 14.7397V7.16634C26.6668 5.69967 25.4668 4.49967 24.0002 4.49967ZM16.0002 7.16634C15.2668 7.16634 14.6668 6.56634 14.6668 5.83301C14.6668 5.09967 15.2668 4.49967 16.0002 4.49967C16.7335 4.49967 17.3335 5.09967 17.3335 5.83301C17.3335 6.56634 16.7335 7.16634 16.0002 7.16634ZM22.6668 16.4997C18.9868 16.4997 16.0002 19.4863 16.0002 23.1663C16.0002 26.8463 18.9868 29.833 22.6668 29.833C26.3468 29.833 29.3335 26.8463 29.3335 23.1663C29.3335 19.4863 26.3468 16.4997 22.6668 16.4997ZM24.3868 25.833L22.1868 23.633C22.0612 23.5099 21.9893 23.3422 21.9868 23.1663V19.8463C21.9868 19.473 22.2802 19.1797 22.6535 19.1797C23.0268 19.1797 23.3202 19.473 23.3202 19.8463V22.8997L25.3202 24.8997C25.3825 24.9607 25.432 25.0335 25.466 25.1139C25.5 25.1942 25.5178 25.2805 25.5182 25.3677C25.5186 25.455 25.5018 25.5414 25.4686 25.6221C25.4354 25.7028 25.3866 25.7761 25.3249 25.8377C25.2632 25.8994 25.1899 25.9483 25.1092 25.9815C25.0286 26.0146 24.9421 26.0315 24.8549 26.031C24.7676 26.0306 24.6814 26.0129 24.601 25.9789C24.5207 25.9449 24.4479 25.8953 24.3868 25.833Z" fill="#293359"/>
</svg>
