<svg width="24" height="24" viewBox="0 0 24 24" fill="none" xmlns="http://www.w3.org/2000/svg">
<path d="M1.5 19.5004C1.5 20.6939 1.97411 21.8385 2.81802 22.6824C3.66193 23.5263 4.80653 24.0004 6 24.0004H18C19.1935 24.0004 20.3381 23.5263 21.182 22.6824C22.0259 21.8385 22.5 20.6939 22.5 19.5004V18.0004H1.5V19.5004ZM23.25 13.5004H18.75V12.0004H21.75C21.9489 12.0004 22.1397 11.9214 22.2803 11.7807C22.421 11.6401 22.5 11.4493 22.5 11.2504V10.5004C22.5 10.3015 22.421 10.1107 22.2803 9.97009C22.1397 9.82944 21.9489 9.75042 21.75 9.75042H18C17.6022 9.75042 17.2206 9.90845 16.9393 10.1898C16.658 10.4711 16.5 10.8526 16.5 11.2504V13.5004H13.5V4.50042C13.5 4.10259 13.658 3.72106 13.9393 3.43976C14.2206 3.15845 14.6022 3.00042 15 3.00042C15.3978 3.00042 15.7794 3.15845 16.0607 3.43976C16.342 3.72106 16.5 4.10259 16.5 4.50042V5.25042C16.5 5.44933 16.579 5.6401 16.7197 5.78075C16.8603 5.9214 17.0511 6.00042 17.25 6.00042H18.75C18.9489 6.00042 19.1397 5.9214 19.2803 5.78075C19.421 5.6401 19.5 5.44933 19.5 5.25042V4.50042C19.4991 3.83359 19.3503 3.17527 19.0642 2.57291C18.7781 1.97055 18.362 1.43917 17.8458 1.01706C17.3296 0.594953 16.7261 0.29264 16.0789 0.131914C15.4318 -0.028811 14.757 -0.0439444 14.1033 0.0876052C11.9667 0.502449 10.5 2.50167 10.5 4.67807V13.5004H7.5V11.2504C7.5 10.8526 7.34196 10.4711 7.06066 10.1898C6.77936 9.90845 6.39782 9.75042 6 9.75042H2.25C2.05109 9.75042 1.86032 9.82944 1.71967 9.97009C1.57902 10.1107 1.5 10.3015 1.5 10.5004V11.2504C1.5 11.4493 1.57902 11.6401 1.71967 11.7807C1.86032 11.9214 2.05109 12.0004 2.25 12.0004H5.25V13.5004H0.75C0.551088 13.5004 0.360322 13.5794 0.21967 13.7201C0.0790176 13.8607 0 14.0515 0 14.2504L0 15.7504C0 15.9493 0.0790176 16.1401 0.21967 16.2807C0.360322 16.4214 0.551088 16.5004 0.75 16.5004H23.25C23.4489 16.5004 23.6397 16.4214 23.7803 16.2807C23.921 16.1401 24 15.9493 24 15.7504V14.2504C24 14.0515 23.921 13.8607 23.7803 13.7201C23.6397 13.5794 23.4489 13.5004 23.25 13.5004Z" fill="#333333"/>
</svg>
