<svg width="24" height="20" viewBox="0 0 24 20" fill="none" xmlns="http://www.w3.org/2000/svg">
<path d="M7.58333 0C8.33478 0 9.05545 0.298511 9.5868 0.829864C10.1182 1.36122 10.4167 2.08189 10.4167 2.83333V11.3333C10.4167 15.7675 8.07917 18.6901 3.67758 19.7908C3.49662 19.8375 3.30821 19.848 3.1232 19.8216C2.93818 19.7951 2.76023 19.7324 2.59958 19.6369C2.43894 19.5413 2.29878 19.415 2.18717 19.2651C2.07557 19.1152 1.99473 18.9447 1.94932 18.7634C1.9039 18.5821 1.89481 18.3936 1.92255 18.2088C1.9503 18.024 2.01434 17.8465 2.11099 17.6865C2.20764 17.5266 2.33499 17.3873 2.48569 17.2768C2.63639 17.1662 2.80748 17.0866 2.98908 17.0425C6.144 16.2534 7.58333 14.4543 7.58333 11.3333V9.91667H3.33333C2.61852 9.91689 1.93003 9.64692 1.40589 9.16088C0.88175 8.67484 0.560695 8.00864 0.507083 7.29583L0.5 7.08333V2.83333C0.5 2.08189 0.798511 1.36122 1.32986 0.829864C1.86122 0.298511 2.58189 0 3.33333 0H7.58333ZM20.3333 0C21.0848 0 21.8054 0.298511 22.3368 0.829864C22.8682 1.36122 23.1667 2.08189 23.1667 2.83333V11.3333C23.1667 15.7675 20.8292 18.6901 16.4276 19.7908C16.2466 19.8375 16.0582 19.848 15.8732 19.8216C15.6882 19.7951 15.5102 19.7324 15.3496 19.6369C15.1889 19.5413 15.0488 19.415 14.9372 19.2651C14.8256 19.1152 14.7447 18.9447 14.6993 18.7634C14.6539 18.5821 14.6448 18.3936 14.6726 18.2088C14.7003 18.024 14.7643 17.8465 14.861 17.6865C14.9576 17.5266 15.085 17.3873 15.2357 17.2768C15.3864 17.1662 15.5575 17.0866 15.7391 17.0425C18.894 16.2534 20.3333 14.4543 20.3333 11.3333V9.91667H16.0833C15.3685 9.91689 14.68 9.64692 14.1559 9.16088C13.6318 8.67484 13.3107 8.00864 13.2571 7.29583L13.25 7.08333V2.83333C13.25 2.08189 13.5485 1.36122 14.0799 0.829864C14.6112 0.298511 15.3319 0 16.0833 0H20.3333Z" fill="#333333"/>
</svg>
