<svg width="22" height="22" viewBox="0 0 22 22" fill="none" xmlns="http://www.w3.org/2000/svg">
<path d="M7.79029 7.10412C7.09154 6.80715 6.79456 5.94244 7.21382 5.31356C8.06106 4.05579 9.47605 3.13867 11.3452 3.13867C13.3978 3.13867 14.8041 4.07326 15.5203 5.24368C16.1317 6.24814 16.4898 8.12606 15.5465 9.52357C14.4984 11.0696 13.4939 11.5412 12.9524 12.537C12.8213 12.7728 12.7427 12.965 12.6903 13.358C12.6117 13.9956 12.0877 14.4935 11.4413 14.4935C10.6814 14.4935 10.0613 13.8384 10.1486 13.0785C10.201 12.633 10.3058 12.1701 10.5504 11.7334C11.2229 10.5193 12.5156 9.80307 13.2668 8.72873C14.0616 7.60199 13.6162 5.49698 11.3627 5.49698C10.3408 5.49698 9.67694 6.02978 9.26642 6.6674C8.96071 7.16526 8.3231 7.32248 7.79029 7.10412ZM13.1009 17.9873C13.1009 18.9481 12.3147 19.7342 11.354 19.7342C10.3932 19.7342 9.60706 18.9481 9.60706 17.9873C9.60706 17.0265 10.3932 16.2404 11.354 16.2404C12.3147 16.2404 13.1009 17.0265 13.1009 17.9873Z" fill="#293359"/>
</svg>
