<svg width="16" height="16" viewBox="0 0 16 16" fill="none" xmlns="http://www.w3.org/2000/svg">
<path d="M13.2894 8.69411C13.1635 9.65408 12.7786 10.5617 12.1761 11.3196C11.5736 12.0774 10.7762 12.657 9.86933 12.9961C8.96247 13.3352 7.98041 13.4211 7.02846 13.2445C6.07652 13.0679 5.1906 12.6355 4.46573 11.9937C3.74085 11.3518 3.20437 10.5248 2.91381 9.60121C2.62325 8.67765 2.58957 7.69241 2.81639 6.75117C3.04322 5.80992 3.52198 4.94818 4.20134 4.25835C4.8807 3.56852 5.73503 3.07663 6.67269 2.83544C9.27203 2.16878 11.9627 3.50678 12.956 6.00011" stroke="#555555" stroke-width="2" stroke-linecap="round" stroke-linejoin="round"/>
<path d="M13.3333 2.66675V6.00008H10" stroke="#555555" stroke-width="2" stroke-linecap="round" stroke-linejoin="round"/>
</svg>
