<svg width="24" height="24" viewBox="0 0 24 24" fill="none" xmlns="http://www.w3.org/2000/svg">
<path d="M8.115 14.2084C8.00166 14.2817 7.887 14.3544 7.771 14.4264C7.87931 15.512 8.40092 16.5143 9.22785 17.2259C10.0548 17.9375 11.1237 18.3038 12.2133 18.2491C13.3028 18.1944 14.3296 17.7227 15.0811 16.9318C15.8325 16.1409 16.251 15.0914 16.25 14.0004V13.9954C16.116 14.0187 15.9813 14.0404 15.846 14.0604L15.831 14.0634C15.6703 14.0881 15.5083 14.1144 15.345 14.1424C14.645 14.2684 14.078 14.2174 13.587 14.0364C13.13 13.8684 12.786 13.6004 12.532 13.4034L12.508 13.3854C12.233 13.1714 12.053 13.0384 11.83 12.9554C11.627 12.8814 11.337 12.8324 10.857 12.9194C10.153 13.0454 9.524 13.3454 8.942 13.6884C8.694 13.8354 8.462 13.9844 8.235 14.1314L8.115 14.2084Z" fill="#333333"/>
<path fill-rule="evenodd" clip-rule="evenodd" d="M3 10C3 6.229 3 4.343 4.172 3.172C5.344 2.001 7.229 2 11 2H13C16.771 2 18.657 2 19.828 3.172C20.999 4.344 21 6.229 21 10V14C21 17.771 21 19.657 19.828 20.828C18.656 21.999 16.771 22 13 22H11C7.229 22 5.343 22 4.172 20.828C3.001 19.656 3 17.771 3 14V10ZM17.75 14C17.75 13.78 17.738 13.5637 17.714 13.351L17.734 13.338L17.643 12.89C17.3641 11.4911 16.5754 10.2456 15.4299 9.39552C14.2845 8.5454 12.864 8.15125 11.4442 8.28957C10.0245 8.42789 8.70677 9.08883 7.74693 10.1441C6.78709 11.1993 6.25359 12.5735 6.25 14C6.25 15.525 6.8558 16.9875 7.93414 18.0659C9.01247 19.1442 10.475 19.75 12 19.75C13.525 19.75 14.9875 19.1442 16.0659 18.0659C17.1442 16.9875 17.75 15.525 17.75 14ZM8 5.25C7.80109 5.25 7.61032 5.32902 7.46967 5.46967C7.32902 5.61032 7.25 5.80109 7.25 6C7.25 6.19891 7.32902 6.38968 7.46967 6.53033C7.61032 6.67098 7.80109 6.75 8 6.75H16C16.1989 6.75 16.3897 6.67098 16.5303 6.53033C16.671 6.38968 16.75 6.19891 16.75 6C16.75 5.80109 16.671 5.61032 16.5303 5.46967C16.3897 5.32902 16.1989 5.25 16 5.25H8Z" fill="#333333"/>
</svg>
