<svg width="72" height="72" viewBox="0 0 72 72" fill="none" xmlns="http://www.w3.org/2000/svg">
<g clip-path="url(#clip0_5785_16123)">
<path fill-rule="evenodd" clip-rule="evenodd" d="M3.76458 3.76457C4.95871 2.57075 6.37631 1.62384 7.93643 0.977909C9.49654 0.33198 11.1686 -0.000314576 12.8571 2.23459e-07H61.7143C62.0327 0.00014624 62.3484 0.0594375 62.6451 0.174857C60.9242 0.549416 59.3832 1.50159 58.2783 2.87314C57.1734 4.24469 56.5711 5.95304 56.5714 7.71429V69.4286C56.5715 69.8835 56.4509 70.3304 56.2219 70.7235C55.9929 71.1166 55.6637 71.442 55.2678 71.6663C54.872 71.8906 54.4237 72.0059 53.9688 72.0004C53.5139 71.9948 53.0686 71.8687 52.6783 71.6349L41.1429 64.7126L29.6074 71.64C29.2081 71.8793 28.7513 72.0057 28.2857 72.0057C27.8202 72.0057 27.3634 71.8793 26.964 71.64L15.4286 64.7126L3.89315 71.64C3.50251 71.8741 3.05671 72.0002 2.60134 72.0055C2.14596 72.0108 1.69735 71.8951 1.30137 71.6701C0.905393 71.4452 0.576251 71.1192 0.347602 70.7253C0.118953 70.3315 -0.00100074 69.884 6.28869e-06 69.4286V12.8571C-0.000308511 11.1686 0.331986 9.49653 0.977915 7.93642C1.62384 6.37631 2.57076 4.95871 3.76458 3.76457Z" fill="#293359"/>
<path fill-rule="evenodd" clip-rule="evenodd" d="M28.2865 10.2857C29.3095 10.2857 30.2905 10.6921 31.0139 11.4154C31.7372 12.1388 32.1436 13.1199 32.1436 14.1428V16.8583C33.9524 17.1632 35.6467 17.9462 37.0511 19.1263C38.4554 20.3063 39.5186 21.8405 40.1305 23.5697C40.4715 24.5347 40.4151 25.5957 39.9739 26.5191C39.5327 27.4426 38.7426 28.153 37.7776 28.494C36.8126 28.835 35.7517 28.7787 34.8282 28.3374C33.9047 27.8962 33.1943 27.1061 32.8533 26.1411C32.6759 25.6404 32.3478 25.207 31.914 24.9003C31.4803 24.5937 30.9622 24.4289 30.431 24.4286H25.4528C24.9908 24.4319 24.5463 24.6049 24.2037 24.9148C23.8611 25.2246 23.6444 25.6496 23.5948 26.1089C23.5453 26.5682 23.6663 27.0296 23.935 27.4054C24.2036 27.7812 24.601 28.0451 25.0516 28.1468L32.627 29.8028C34.9637 30.3102 37.0507 31.6157 38.529 33.4951C40.0074 35.3744 40.7848 37.7101 40.7276 40.1005C40.6703 42.491 39.7821 44.7868 38.2155 46.5932C36.6489 48.3997 34.5019 49.6039 32.1436 49.9988V52.7143C32.1436 53.7373 31.7372 54.7183 31.0139 55.4417C30.2905 56.165 29.3095 56.5714 28.2865 56.5714C27.2635 56.5714 26.2824 56.165 25.5591 55.4417C24.8357 54.7183 24.4293 53.7373 24.4293 52.7143V49.9988C22.6205 49.694 20.9262 48.9109 19.5219 47.7308C18.1176 46.5508 17.0544 45.0166 16.4425 43.2874C16.1015 42.3224 16.1578 41.2615 16.599 40.338C17.0403 39.4145 17.8303 38.7041 18.7953 38.3631C19.7603 38.0221 20.8213 38.0785 21.7448 38.5197C22.6682 38.961 23.3786 39.751 23.7196 40.716C23.897 41.2167 24.2252 41.6501 24.6589 41.9568C25.0926 42.2635 25.6107 42.4283 26.1419 42.4286H30.431C31.072 42.4386 31.6936 42.2088 32.174 41.7843C32.6544 41.3597 32.9588 40.7711 33.0277 40.1338C33.0966 39.4964 32.9249 38.8563 32.5464 38.339C32.1678 37.8216 31.6097 37.4643 30.9813 37.3371L23.4008 35.6863C21.1794 35.1954 19.2047 33.9313 17.8289 32.1195C16.4531 30.3078 15.7656 28.0662 15.8892 25.7946C16.0127 23.523 16.9393 21.3692 18.5035 19.7173C20.0677 18.0655 22.1678 17.0231 24.4293 16.776V14.1428C24.4293 13.1199 24.8357 12.1388 25.5591 11.4154C26.2824 10.6921 27.2635 10.2857 28.2865 10.2857Z" fill="#9095A8"/>
<path d="M56.5723 7.71429V30.8571H66.858C68.222 30.8571 69.5301 30.3153 70.4945 29.3508C71.459 28.3864 72.0008 27.0783 72.0008 25.7143V7.71429C72.0008 5.66833 71.1881 3.70617 69.7414 2.25946C68.2947 0.812753 66.3325 0 64.2866 0C62.2406 0 60.2784 0.812753 58.8317 2.25946C57.385 3.70617 56.5723 5.66833 56.5723 7.71429Z" fill="#9095A8"/>
</g>
<defs>
<clipPath id="clip0_5785_16123">
<rect width="72" height="72" fill="white"/>
</clipPath>
</defs>
</svg>
