<svg width="33" height="32" viewBox="0 0 33 32" fill="none" xmlns="http://www.w3.org/2000/svg">
<path d="M6.73359 7.9998C6.73359 7.15111 7.07074 6.33718 7.67085 5.73706C8.27097 5.13695 9.0849 4.7998 9.93359 4.7998H21.1336C21.9823 4.7998 22.7962 5.13695 23.3963 5.73706C23.9965 6.33718 24.3336 7.15111 24.3336 7.9998V19.1998H29.1336V22.3998C29.1336 23.6728 28.6279 24.8937 27.7277 25.7939C26.8275 26.6941 25.6066 27.1998 24.3336 27.1998H16.9736C17.2339 26.6921 17.4435 26.1587 17.6024 25.5998H22.7336V7.9998C22.7336 7.57546 22.565 7.16849 22.265 6.86843C21.9649 6.56838 21.5579 6.3998 21.1336 6.3998H9.93359C9.50925 6.3998 9.10228 6.56838 8.80222 6.86843C8.50217 7.16849 8.33359 7.57546 8.33359 7.9998V14.435C7.79226 14.484 7.25664 14.5831 6.73359 14.731V7.9998ZM18.7336 15.9998H14.1944C13.4213 15.4557 12.5655 15.0397 11.66 14.7678C11.7324 14.6549 11.8321 14.562 11.9498 14.4977C12.0675 14.4334 12.1995 14.3998 12.3336 14.3998H18.7336C18.9458 14.3998 19.1493 14.4841 19.2993 14.6341C19.4493 14.7841 19.5336 14.9876 19.5336 15.1998C19.5336 15.412 19.4493 15.6155 19.2993 15.7655C19.1493 15.9155 18.9458 15.9998 18.7336 15.9998ZM24.3336 25.5998C25.1823 25.5998 25.9962 25.2627 26.5963 24.6625C27.1965 24.0624 27.5336 23.2485 27.5336 22.3998V20.7998H24.3336V25.5998ZM11.5336 10.3998C11.5336 10.1876 11.6179 9.98415 11.7679 9.83412C11.9179 9.68409 12.1214 9.5998 12.3336 9.5998H18.7336C18.9458 9.5998 19.1493 9.68409 19.2993 9.83412C19.4493 9.98415 19.5336 10.1876 19.5336 10.3998C19.5336 10.612 19.4493 10.8155 19.2993 10.9655C19.1493 11.1155 18.9458 11.1998 18.7336 11.1998H12.3336C12.1214 11.1998 11.9179 11.1155 11.7679 10.9655C11.6179 10.8155 11.5336 10.612 11.5336 10.3998ZM16.3336 23.1998C16.3336 25.1094 15.575 26.9407 14.2248 28.291C12.8745 29.6412 11.0432 30.3998 9.13359 30.3998C7.22404 30.3998 5.39269 29.6412 4.04242 28.291C2.69216 26.9407 1.93359 25.1094 1.93359 23.1998C1.93359 21.2902 2.69216 19.4589 4.04242 18.1086C5.39269 16.7584 7.22404 15.9998 9.13359 15.9998C11.0432 15.9998 12.8745 16.7584 14.2248 18.1086C15.575 19.4589 16.3336 21.2902 16.3336 23.1998ZM9.93359 19.9998C9.93359 19.7876 9.84931 19.5841 9.69928 19.4341C9.54925 19.2841 9.34577 19.1998 9.13359 19.1998C8.92142 19.1998 8.71794 19.2841 8.56791 19.4341C8.41788 19.5841 8.33359 19.7876 8.33359 19.9998V22.3998H5.93359C5.72142 22.3998 5.51794 22.4841 5.36791 22.6341C5.21788 22.7841 5.13359 22.9876 5.13359 23.1998C5.13359 23.412 5.21788 23.6155 5.36791 23.7655C5.51794 23.9155 5.72142 23.9998 5.93359 23.9998H8.33359V26.3998C8.33359 26.612 8.41788 26.8155 8.56791 26.9655C8.71794 27.1155 8.92142 27.1998 9.13359 27.1998C9.34577 27.1998 9.54925 27.1155 9.69928 26.9655C9.84931 26.8155 9.93359 26.612 9.93359 26.3998V23.9998H12.3336C12.5458 23.9998 12.7493 23.9155 12.8993 23.7655C13.0493 23.6155 13.1336 23.412 13.1336 23.1998C13.1336 22.9876 13.0493 22.7841 12.8993 22.6341C12.7493 22.4841 12.5458 22.3998 12.3336 22.3998H9.93359V19.9998Z" fill="#293359"/>
</svg>
