<svg width="25" height="24" viewBox="0 0 25 24" fill="none" xmlns="http://www.w3.org/2000/svg">
<path fill-rule="evenodd" clip-rule="evenodd" d="M14.7793 2.152C14.4093 2 13.9393 2 13.0003 2C12.0613 2 11.5923 2 11.2213 2.152C10.9772 2.25175 10.7552 2.39878 10.5682 2.58465C10.3811 2.77051 10.2326 2.99154 10.1313 3.235C10.0373 3.458 10.0013 3.719 9.98632 4.098C9.97918 4.3725 9.90238 4.64068 9.76314 4.87736C9.6239 5.11403 9.42679 5.31142 9.19032 5.451C8.94906 5.5851 8.67786 5.65615 8.40184 5.65754C8.12582 5.65894 7.85392 5.59065 7.61132 5.459C7.27332 5.281 7.02832 5.183 6.78632 5.151C6.2569 5.08192 5.72158 5.2242 5.29632 5.547C4.97832 5.789 4.74332 6.193 4.27432 7C3.80432 7.807 3.57032 8.21 3.51732 8.605C3.44732 9.131 3.59132 9.663 3.91732 10.084C4.06532 10.276 4.27432 10.437 4.59732 10.639C5.07432 10.936 5.38032 11.442 5.38032 12C5.38032 12.558 5.07432 13.064 4.59832 13.36C4.27432 13.563 4.06532 13.724 3.91632 13.916C3.75588 14.1242 3.63806 14.362 3.5696 14.6158C3.50114 14.8696 3.48337 15.1343 3.51732 15.395C3.57032 15.789 3.80432 16.193 4.27432 17C4.74432 17.807 4.97832 18.21 5.29632 18.453C5.72032 18.776 6.25632 18.918 6.78632 18.849C7.02832 18.817 7.27332 18.719 7.61132 18.541C7.85404 18.4092 8.12613 18.3408 8.40234 18.3422C8.67855 18.3436 8.94994 18.4147 9.19132 18.549C9.67732 18.829 9.96532 19.344 9.98632 19.902C10.0013 20.282 10.0373 20.542 10.1313 20.765C10.3353 21.255 10.7273 21.645 11.2213 21.848C11.5913 22 12.0613 22 13.0003 22C13.9393 22 14.4093 22 14.7793 21.848C15.0234 21.7483 15.2454 21.6012 15.4325 21.4154C15.6195 21.2295 15.768 21.0085 15.8693 20.765C15.9633 20.542 15.9993 20.282 16.0143 19.902C16.0343 19.344 16.3233 18.828 16.8103 18.549C17.0516 18.4149 17.3228 18.3439 17.5988 18.3425C17.8748 18.3411 18.1467 18.4093 18.3893 18.541C18.7273 18.719 18.9723 18.817 19.2143 18.849C19.7443 18.919 20.2803 18.776 20.7043 18.453C21.0223 18.211 21.2573 17.807 21.7263 17C22.1963 16.193 22.4303 15.79 22.4833 15.395C22.5171 15.1343 22.4992 14.8695 22.4306 14.6157C22.3619 14.3619 22.2439 14.1241 22.0833 13.916C21.9353 13.724 21.7263 13.563 21.4033 13.361C20.9263 13.064 20.6203 12.558 20.6203 12C20.6203 11.442 20.9263 10.936 21.4023 10.64C21.7263 10.437 21.9353 10.276 22.0843 10.084C22.2447 9.87579 22.3626 9.63799 22.431 9.38422C22.4995 9.13044 22.5173 8.86565 22.4833 8.605C22.4303 8.211 22.1963 7.807 21.7263 7C21.2563 6.193 21.0223 5.79 20.7043 5.547C20.279 5.2242 19.7437 5.08192 19.2143 5.151C18.9723 5.183 18.7273 5.281 18.3893 5.459C18.1466 5.59083 17.8745 5.65922 17.5983 5.65782C17.3221 5.65642 17.0507 5.58528 16.8093 5.451C16.573 5.3113 16.3761 5.11385 16.2371 4.87719C16.098 4.64052 16.0213 4.37241 16.0143 4.098C15.9993 3.718 15.9633 3.458 15.8693 3.235C15.768 2.99154 15.6195 2.77051 15.4325 2.58465C15.2454 2.39878 15.0234 2.25175 14.7793 2.152ZM13.0003 15C14.6703 15 16.0233 13.657 16.0233 12C16.0233 10.343 14.6693 9 13.0003 9C11.3313 9 9.97732 10.343 9.97732 12C9.97732 13.657 11.3313 15 13.0003 15Z" fill="#333333" fill-opacity="0.8"/>
</svg>
