<svg width="33" height="32" viewBox="0 0 33 32" fill="none" xmlns="http://www.w3.org/2000/svg">
<g clip-path="url(#clip0_4549_2814)">
<path d="M30.5 20.0004C30.502 18.9991 30.2534 18.0131 29.7768 17.1325C29.3002 16.2518 28.6107 15.5045 27.7713 14.9585C26.9319 14.4126 25.9692 14.0854 24.9709 14.0068C23.9726 13.9282 22.9706 14.1007 22.0561 14.5086C21.1415 14.9165 20.3436 15.5467 19.7351 16.342C19.1266 17.1372 18.7267 18.0721 18.572 19.0614C18.4173 20.0507 18.5127 21.063 18.8495 22.0061C19.1862 22.9491 19.7536 23.7928 20.5 24.4604V32.0004L24.5 30.1064L28.5 32.0004V24.4604C29.1287 23.8998 29.6318 23.2127 29.9765 22.4441C30.3211 21.6755 30.4995 20.8427 30.5 20.0004ZM26.5 28.8404L24.5 27.8934L22.5 28.8404V25.6504C23.7926 26.1162 25.2073 26.1162 26.5 25.6504V28.8404ZM24.5 24.0004C23.7089 24.0004 22.9355 23.7658 22.2777 23.3263C21.6199 22.8868 21.1072 22.262 20.8045 21.5311C20.5017 20.8002 20.4225 19.996 20.5768 19.22C20.7312 18.4441 21.1122 17.7314 21.6716 17.172C22.231 16.6126 22.9437 16.2316 23.7196 16.0773C24.4956 15.9229 25.2998 16.0021 26.0307 16.3049C26.7616 16.6076 27.3863 17.1203 27.8259 17.7781C28.2654 18.4359 28.5 19.2093 28.5 20.0004C28.4987 21.0609 28.0768 22.0775 27.327 22.8274C26.5771 23.5772 25.5604 23.9991 24.5 24.0004Z" fill="#333333"/>
<path d="M25.5 5H22.5V4C22.4984 3.47005 22.2872 2.96227 21.9125 2.58753C21.5377 2.2128 21.0299 2.00158 20.5 2H12.5C11.9701 2.00158 11.4623 2.2128 11.0875 2.58753C10.7128 2.96227 10.5016 3.47005 10.5 4V5H7.5C6.97005 5.00158 6.46227 5.2128 6.08753 5.58753C5.7128 5.96227 5.50158 6.47005 5.5 7V28C5.50158 28.5299 5.7128 29.0377 6.08753 29.4125C6.46227 29.7872 6.97005 29.9984 7.5 30H16.5V28H7.5V7H10.5V10H22.5V7H25.5V12H27.5V7C27.4984 6.47005 27.2872 5.96227 26.9125 5.58753C26.5377 5.2128 26.0299 5.00158 25.5 5ZM20.5 8H12.5V4H20.5V8Z" fill="#333333"/>
</g>
<defs>
<clipPath id="clip0_4549_2814">
<rect width="32" height="32" fill="white" transform="translate(0.5)"/>
</clipPath>
</defs>
</svg>
