<svg width="33" height="32" viewBox="0 0 33 32" fill="none" xmlns="http://www.w3.org/2000/svg">
<path d="M26.2092 24.2893L24.7893 25.7092C24.602 25.8955 24.3486 26 24.0844 26C23.8202 26 23.5668 25.8955 23.3795 25.7092L11.5004 13.8497C11.1753 13.944 10.839 13.9945 10.5005 13.9997C9.86383 13.9992 9.23649 13.8468 8.67061 13.5551C8.10473 13.2633 7.61667 12.8407 7.247 12.3224C6.87732 11.804 6.63672 11.2049 6.5452 10.5749C6.45367 9.94481 6.51386 9.302 6.72078 8.69989L9.26057 11.2398L9.79053 10.7098L11.2104 9.28987L11.7404 8.75989L9.20058 6.21999C9.80266 6.01307 10.4454 5.95288 11.0755 6.0444C11.7055 6.13593 12.3046 6.37654 12.8229 6.74623C13.3412 7.11592 13.7638 7.604 14.0556 8.1699C14.3473 8.7358 14.4997 9.36317 14.5002 9.99984C14.4949 10.3384 14.4445 10.6747 14.3502 10.9998L26.2092 22.8793C26.3955 23.0667 26.5 23.3201 26.5 23.5843C26.5 23.8485 26.3955 24.1019 26.2092 24.2893ZM6.79077 22.8793C6.60453 23.0667 6.5 23.3201 6.5 23.5843C6.5 23.8485 6.60453 24.1019 6.79077 24.2893L8.21066 25.7092C8.398 25.8955 8.65144 26 8.9156 26C9.17977 26 9.4332 25.8955 9.62055 25.7092L15.0901 20.2494L12.2603 17.4195M24.4994 6L20.4997 7.99992V9.99984L18.3299 12.1698L20.3297 14.1697L22.4995 11.9998H24.4994L26.4992 7.99992L24.4994 6Z" fill="#293359"/>
</svg>
