<svg width="18" height="18" viewBox="0 0 18 18" fill="none" xmlns="http://www.w3.org/2000/svg">
<g clip-path="url(#clip0_4083_3012)">
<path d="M4.9004 1.39985C5.98245 0.959597 7.16466 0.825052 8.31797 1.0109C9.47128 1.19676 10.5514 1.69586 11.4404 2.45374C12.3293 3.21163 12.993 4.19915 13.359 5.30854C13.725 6.41792 13.7792 7.60652 13.5156 8.7446L17.3811 12.6094L16.3199 13.6699L11.8296 9.1796L11.9632 8.7476C12.2254 7.8997 12.2511 6.9963 12.0377 6.13482C11.8242 5.27335 11.3797 4.48649 10.7519 3.8591C10.1731 3.27991 9.45765 2.85585 8.6717 2.62607C7.88575 2.39629 7.05458 2.36818 6.2549 2.54435L9.4259 5.71535L5.7134 9.42785L2.5424 6.25535C2.36633 7.05509 2.39455 7.8863 2.62446 8.67226C2.85438 9.45821 3.27857 10.1736 3.8579 10.7524C4.48529 11.3801 5.27215 11.8247 6.13362 12.0381C6.99509 12.2516 7.8985 12.2258 8.7464 11.9636L9.17765 11.8301L13.6687 16.3211L12.6082 17.3816L8.74265 13.5169C7.60457 13.7804 6.41597 13.7262 5.30658 13.3602C4.1972 12.9942 3.20967 12.3305 2.45179 11.4416C1.69391 10.5526 1.1948 9.47249 1.00895 8.31917C0.823099 7.16586 0.957644 5.98366 1.3979 4.9016L1.5884 4.4336L2.8424 4.4351L5.7134 7.3061L7.3049 5.71535L4.4339 2.84435L4.4324 1.59035L4.9004 1.39985ZM11.8124 10.7531L15.5249 14.4656L14.4644 15.5261L10.7519 11.8136L11.8124 10.7531Z" fill="#333333"/>
</g>
<defs>
<clipPath id="clip0_4083_3012">
<rect width="18" height="18" fill="white"/>
</clipPath>
</defs>
</svg>
