<svg width="32" height="32" viewBox="0 0 32 32" fill="none" xmlns="http://www.w3.org/2000/svg">
<path d="M16.0003 2.66699C23.3643 2.66699 29.3337 8.63633 29.3337 16.0003C29.3337 23.3643 23.3643 29.3337 16.0003 29.3337C8.63633 29.3337 2.66699 23.3643 2.66699 16.0003C2.66699 8.63633 8.63633 2.66699 16.0003 2.66699ZM16.0003 5.33366C13.1713 5.33366 10.4582 6.45747 8.45785 8.45785C6.45747 10.4582 5.33366 13.1713 5.33366 16.0003C5.33366 18.8293 6.45747 21.5424 8.45785 23.5428C10.4582 25.5432 13.1713 26.667 16.0003 26.667C18.8293 26.667 21.5424 25.5432 23.5428 23.5428C25.5432 21.5424 26.667 18.8293 26.667 16.0003C26.667 13.1713 25.5432 10.4582 23.5428 8.45785C21.5424 6.45747 18.8293 5.33366 16.0003 5.33366ZM16.0003 8.00033C16.3269 8.00037 16.6421 8.12027 16.8862 8.33728C17.1302 8.55429 17.2861 8.85332 17.3243 9.17766L17.3337 9.33366V15.4483L20.943 19.0577C21.1821 19.2976 21.321 19.6196 21.3313 19.9582C21.3416 20.2968 21.2227 20.6266 20.9987 20.8807C20.7746 21.1348 20.4623 21.2941 20.125 21.3262C19.7878 21.3583 19.451 21.2609 19.183 21.0537L19.0577 20.943L15.0577 16.943C14.8504 16.7356 14.7173 16.4657 14.679 16.175L14.667 16.0003V9.33366C14.667 8.98004 14.8075 8.6409 15.0575 8.39085C15.3076 8.1408 15.6467 8.00033 16.0003 8.00033Z" fill="#333333" fill-opacity="0.6"/>
</svg>
