<svg width="24" height="24" viewBox="0 0 24 24" fill="none" xmlns="http://www.w3.org/2000/svg">
<path d="M12.8842 5.11597C12.6493 4.88221 12.3315 4.75098 12.0002 4.75098C11.6688 4.75098 11.351 4.88221 11.1162 5.11597L6.11617 10.116C6.00008 10.2321 5.90799 10.3699 5.84516 10.5216C5.78234 10.6732 5.75 10.8358 5.75 11C5.75 11.3315 5.88171 11.6495 6.11617 11.884C6.35062 12.1184 6.6686 12.2501 7.00016 12.2501C7.33173 12.2501 7.64971 12.1184 7.88416 11.884L10.7502 9.01797V18C10.7502 18.3315 10.8819 18.6494 11.1163 18.8839C11.3507 19.1183 11.6686 19.25 12.0002 19.25C12.3317 19.25 12.6496 19.1183 12.884 18.8839C13.1185 18.6494 13.2502 18.3315 13.2502 18V9.01797L16.1162 11.884C16.2323 12.0001 16.3701 12.0921 16.5217 12.155C16.6734 12.2178 16.836 12.2501 17.0002 12.2501C17.1643 12.2501 17.3269 12.2178 17.4786 12.155C17.6303 12.0921 17.7681 12.0001 17.8842 11.884C18.0003 11.7679 18.0923 11.6301 18.1552 11.4784C18.218 11.3267 18.2503 11.1641 18.2503 11C18.2503 10.8358 18.218 10.6732 18.1552 10.5216C18.0923 10.3699 18.0003 10.2321 17.8842 10.116L12.8842 5.11597Z" fill="#50FB7E"/>
</svg>
